<svg width="23" height="23" viewBox="0 0 23 23" fill="none" xmlns="http://www.w3.org/2000/svg">
<g id="Iconly/Bold/Calendar">
<g id="Calendar">
<path id="Calendar_2" d="M15.728 3.37149L15.228 3.37214L15.2287 3.83388L15.689 3.86996L15.728 3.37149ZM15.7271 2.6531L16.2271 2.65244L16.2271 2.65197L15.7271 2.6531ZM20.1146 8.13585L19.6146 8.13636V8.13649L20.1146 8.13585ZM20.125 16.2106L20.625 16.2099V16.2099L20.125 16.2106ZM15.2105 21.0736L15.2111 21.5736L15.2113 21.5736L15.2105 21.0736ZM7.81222 21.0832L7.81286 21.5832H7.81287L7.81222 21.0832ZM2.88541 16.1761L3.38541 16.1754L3.38541 16.1754L2.88541 16.1761ZM2.87501 8.19619L3.37501 8.19554L3.37501 8.19551L2.87501 8.19619ZM7.19341 3.38298L7.23912 3.88089L7.69402 3.83913L7.69341 3.38232L7.19341 3.38298ZM7.19247 2.66459L7.69247 2.66393L7.69247 2.66347L7.19247 2.66459ZM7.92009 1.92608V2.42609L7.92124 2.42608L7.92009 1.92608ZM8.6496 2.66267L9.1496 2.66197L9.1496 2.66155L8.6496 2.66267ZM8.65055 3.33317L8.15055 3.33388L8.15125 3.83385L8.65123 3.83317L8.65055 3.33317ZM14.2709 3.32551L14.2716 3.82551L14.7716 3.82483L14.7709 3.3248L14.2709 3.32551ZM14.27 2.65501L14.77 2.65431L14.77 2.65389L14.27 2.65501ZM14.9976 1.91651L14.9987 2.4165L14.9988 2.4165L14.9976 1.91651ZM18.6584 8.47296L18.6591 8.97296L19.1584 8.97229V8.47296H18.6584ZM4.3331 8.49211L3.8331 8.4937L3.83469 8.99278L4.33377 8.99211L4.3331 8.49211ZM18.6584 8.13771H19.1585L19.1583 8.12783L18.6584 8.13771ZM15.7299 4.83694L15.7732 4.33882L15.2292 4.29162L15.2299 4.83758L15.7299 4.83694ZM15.7309 5.57449H16.2309V5.57385L15.7309 5.57449ZM15.0033 6.313V5.81299L15.0021 5.813L15.0033 6.313ZM14.2738 5.57641H14.7738V5.5758L14.2738 5.57641ZM14.2728 4.80055L14.7728 4.79994L14.7722 4.29986L14.2721 4.30055L14.2728 4.80055ZM8.65245 4.80821L8.65177 4.30821L8.15184 4.30889L8.15245 4.80882L8.65245 4.80821ZM8.6534 5.58311H9.1534L9.1534 5.5825L8.6534 5.58311ZM7.92578 6.32162V5.82162L7.92463 5.82162L7.92578 6.32162ZM7.19627 5.58503H7.69627L7.69627 5.58439L7.19627 5.58503ZM7.19532 4.84748L7.69532 4.84684L7.69461 4.29495L7.14547 4.34997L7.19532 4.84748ZM4.33215 8.19422L3.83215 8.1949L3.83216 8.19581L4.33215 8.19422ZM14.605 12.8561H14.1049L14.1051 12.8668L14.605 12.8561ZM14.605 12.8455H15.105L15.105 12.8445L14.605 12.8455ZM15.4102 13.6214L15.4212 14.1213L15.4226 14.1212L15.4102 13.6214ZM16.1662 12.8053L16.6662 12.7946L16.6656 12.7818L16.1662 12.8053ZM15.3799 12.0409L15.3788 11.5408L15.3689 11.5411L15.3799 12.0409ZM14.5992 16.3331L15.0993 16.332L15.0991 16.3224L14.5992 16.3331ZM15.3864 17.1463L15.3754 17.6463L15.3875 17.6463L15.3864 17.1463ZM15.3741 15.517V15.0168L15.362 15.0171L15.3741 15.517ZM16.1888 16.3302H15.6888L15.6888 16.3313L16.1888 16.3302ZM11.5213 13.6263L11.5433 14.1258L11.5449 14.1257L11.5213 13.6263ZM10.7066 12.861L10.2066 12.862L10.2066 12.8722L10.2071 12.8824L10.7066 12.861ZM12.2678 12.8016L11.7679 12.8137L11.7683 12.823L12.2678 12.8016ZM11.4815 12.0363L11.4804 11.5363L11.47 11.5363L11.4596 11.5367L11.4815 12.0363ZM10.7105 16.338H10.2105V16.3492L10.211 16.3605L10.7105 16.338ZM11.5251 17.1033L11.5471 17.6028L11.5487 17.6027L11.5251 17.1033ZM11.4854 15.5133L11.4843 15.0133L11.4733 15.0133L11.4623 15.0138L11.4854 15.5133ZM12.2717 16.2776L11.7717 16.2886L11.7722 16.3001L12.2717 16.2776ZM7.62302 13.6597L7.60054 13.1603L7.59994 13.1603L7.62302 13.6597ZM6.80835 12.8944L6.30835 12.8955L6.30837 12.9057L6.30881 12.9159L6.80835 12.8944ZM8.36862 12.835L7.8686 12.846L7.86912 12.8576L8.36862 12.835ZM7.58233 12.0697L7.58121 11.5697L7.57077 11.5697L7.56035 11.5702L7.58233 12.0697ZM6.81209 16.3426L6.31209 16.3437L6.31212 16.3544L6.3126 16.3652L6.81209 16.3426ZM7.62676 17.108L7.60434 16.6085L7.60368 16.6085L7.62676 17.108ZM7.58702 15.5179L7.5859 15.0179L7.57546 15.0179L7.56504 15.0184L7.58702 15.5179ZM8.37331 16.2832L7.87329 16.2942L7.87381 16.3058L8.37331 16.2832ZM16.228 3.37083L16.2271 2.65244L15.2271 2.65375L15.228 3.37214L16.228 3.37083ZM20.6146 8.13533C20.613 6.64792 20.1401 5.38099 19.2756 4.45547C18.4119 3.53076 17.1927 2.98474 15.7671 2.87301L15.689 3.86996C16.9032 3.96512 17.8759 4.42198 18.5448 5.13807C19.2129 5.85336 19.6133 6.86516 19.6146 8.13636L20.6146 8.13533ZM20.625 16.2099L20.6146 8.13521L19.6146 8.13649L19.625 16.2112L20.625 16.2099ZM15.2113 21.5736C16.8277 21.571 18.1934 21.074 19.1561 20.1241C20.1198 19.1731 20.627 17.8204 20.625 16.2099L19.625 16.2112C19.6267 17.6084 19.191 18.6848 18.4537 19.4122C17.7155 20.1407 16.622 20.5713 15.2097 20.5736L15.2113 21.5736ZM7.81287 21.5832L15.2111 21.5736L15.2098 20.5736L7.81157 20.5832L7.81287 21.5832ZM2.38541 16.1767C2.38744 17.7921 2.90304 19.1562 3.86899 20.1167C4.83474 21.077 6.20152 21.5852 7.81286 21.5832L7.81158 20.5832C6.41309 20.5849 5.31836 20.1477 4.57411 19.4076C3.83007 18.6677 3.38717 17.5763 3.38541 16.1754L2.38541 16.1767ZM2.37501 8.19685L2.38541 16.1767L3.38541 16.1754L3.37501 8.19554L2.37501 8.19685ZM7.14771 2.88507C5.72362 3.0158 4.51973 3.57036 3.67271 4.503C2.82555 5.43578 2.37297 6.7053 2.37501 8.19688L3.37501 8.19551C3.37325 6.91027 3.75994 5.89435 4.41297 5.17531C5.06613 4.45614 6.02334 3.99249 7.23912 3.88089L7.14771 2.88507ZM6.69247 2.66525L6.69341 3.38364L7.69341 3.38232L7.69247 2.66393L6.69247 2.66525ZM7.92009 1.42608C7.22119 1.42608 6.69091 1.9737 6.69247 2.66571L7.69247 2.66347C7.69213 2.51256 7.78633 2.42608 7.92009 2.42608V1.42608ZM9.1496 2.66155C9.14805 1.97103 8.61845 1.42448 7.91894 1.42609L7.92124 2.42608C8.05437 2.42578 8.14926 2.51141 8.1496 2.6638L9.1496 2.66155ZM9.15054 3.33247L9.1496 2.66197L8.1496 2.66338L8.15055 3.33388L9.15054 3.33247ZM14.2702 2.82551L8.64986 2.83317L8.65123 3.83317L14.2716 3.82551L14.2702 2.82551ZM13.77 2.65572L13.7709 3.32621L14.7709 3.3248L14.77 2.65431L13.77 2.65572ZM14.9964 1.41651C14.2995 1.41811 13.7684 1.96305 13.77 2.65613L14.77 2.65389C14.7696 2.50406 14.863 2.41682 14.9987 2.4165L14.9964 1.41651ZM16.2271 2.65197C16.2255 1.95718 15.6823 1.41489 14.9964 1.41651L14.9988 2.4165C15.1266 2.4162 15.2268 2.5061 15.2271 2.65422L16.2271 2.65197ZM18.6577 7.97296L4.33243 7.99211L4.33377 8.99211L18.6591 8.97296L18.6577 7.97296ZM18.1584 8.13771V8.47296H19.1584V8.13771H18.1584ZM15.6867 5.33507C16.5262 5.40792 17.1156 5.68177 17.5035 6.11075C17.8937 6.54225 18.1397 7.19662 18.1585 8.14758L19.1583 8.12783C19.1364 7.01941 18.8455 6.10386 18.2452 5.44005C17.6427 4.77373 16.7882 4.42689 15.7732 4.33882L15.6867 5.33507ZM16.2309 5.57385L16.2299 4.8363L15.2299 4.83758L15.2309 5.57513L16.2309 5.57385ZM15.0033 6.813C15.6937 6.813 16.2309 6.25501 16.2309 5.57449H15.2309C15.2309 5.71773 15.1265 5.813 15.0033 5.813V6.813ZM13.7738 5.57641C13.7738 6.25497 14.3017 6.81461 15.0044 6.81299L15.0021 5.813C14.8722 5.8133 14.7738 5.7216 14.7738 5.57641H13.7738ZM13.7728 4.80115L13.7738 5.57702L14.7738 5.5758L14.7728 4.79994L13.7728 4.80115ZM8.65313 5.30821L14.2735 5.30054L14.2721 4.30055L8.65177 4.30821L8.65313 5.30821ZM9.1534 5.5825L9.15245 4.8076L8.15245 4.80882L8.1534 5.58372L9.1534 5.5825ZM7.92578 6.82162C8.6295 6.82162 9.1534 6.2607 9.1534 5.58311H8.1534C8.1534 5.73119 8.05471 5.82162 7.92578 5.82162V6.82162ZM6.69627 5.58503C6.69627 6.26498 7.22463 6.82323 7.92693 6.82162L7.92463 5.82162C7.79428 5.82192 7.69627 5.73075 7.69627 5.58503H6.69627ZM6.69532 4.84812L6.69627 5.58567L7.69627 5.58439L7.69532 4.84684L6.69532 4.84812ZM4.83215 8.19354C4.83084 7.23349 5.06563 6.57547 5.44677 6.14067C5.82587 5.70818 6.40927 5.42874 7.24517 5.34499L7.14547 4.34997C6.13631 4.45108 5.2867 4.80622 4.69478 5.48149C4.10488 6.15445 3.83063 7.07736 3.83215 8.1949L4.83215 8.19354ZM4.8331 8.49052L4.83215 8.19263L3.83216 8.19581L3.8331 8.4937L4.8331 8.49052ZM15.105 12.8561V12.8455H14.105V12.8561H15.105ZM15.3992 13.1215C15.2325 13.1252 15.1083 13.0032 15.1049 12.8453L14.1051 12.8668C14.1206 13.5902 14.7155 14.1368 15.4212 14.1213L15.3992 13.1215ZM15.6663 12.816C15.6702 12.9948 15.5348 13.1182 15.3978 13.1215L15.4226 14.1212C16.1372 14.1036 16.6812 13.497 16.6661 12.7946L15.6663 12.816ZM15.381 12.5409C15.5239 12.5406 15.6588 12.6597 15.6668 12.8288L16.6656 12.7818C16.6339 12.108 16.0856 11.5393 15.3788 11.5409L15.381 12.5409ZM15.105 12.8445C15.1046 12.6695 15.2344 12.5443 15.3909 12.5408L15.3689 11.5411C14.6549 11.5568 14.1035 12.1403 14.105 12.8466L15.105 12.8445ZM14.0992 16.3342C14.1007 17.0402 14.6628 17.6305 15.3754 17.6462L15.3974 16.6464C15.2396 16.643 15.0996 16.5072 15.0992 16.332L14.0992 16.3342ZM15.362 15.0171C14.6495 15.0344 14.084 15.6294 14.0993 16.3438L15.0991 16.3224C15.0955 16.1555 15.2283 16.0207 15.3862 16.0168L15.362 15.0171ZM15.3836 15.017H15.3741V16.017H15.3836V15.017ZM16.6888 16.3302C16.6888 15.6081 16.1087 15.017 15.3836 15.017V16.017C15.5479 16.017 15.6888 16.1519 15.6888 16.3302H16.6888ZM15.3875 17.6463C16.1131 17.6447 16.6903 17.0498 16.6888 16.3292L15.6888 16.3313C15.6892 16.511 15.5473 16.646 15.3854 16.6463L15.3875 17.6463ZM11.4993 13.1268C11.3538 13.1332 11.2138 13.0179 11.2061 12.8395L10.2071 12.8824C10.2373 13.5853 10.8183 14.1577 11.5433 14.1258L11.4993 13.1268ZM11.7683 12.823C11.7754 12.9885 11.6485 13.1197 11.4977 13.1268L11.5449 14.1257C12.2456 14.0926 12.7981 13.4958 12.7674 12.7801L11.7683 12.823ZM11.4827 12.5363C11.6392 12.5359 11.7642 12.657 11.768 12.8137L12.7677 12.7895C12.7506 12.0841 12.1755 11.5347 11.4804 11.5363L11.4827 12.5363ZM11.2066 12.8599C11.2062 12.6789 11.3444 12.5428 11.5035 12.5358L11.4596 11.5367C10.7482 11.568 10.2051 12.1618 10.2066 12.862L11.2066 12.8599ZM10.211 16.3605C10.2426 17.0615 10.8212 17.6348 11.5471 17.6028L11.5032 16.6038C11.3586 16.6101 11.2181 16.4956 11.21 16.3154L10.211 16.3605ZM11.4623 15.0138C10.7519 15.0466 10.2105 15.6386 10.2105 16.338H11.2105C11.2105 16.1561 11.3484 16.0201 11.5085 16.0127L11.4623 15.0138ZM12.7716 16.2666C12.756 15.5599 12.1779 15.0117 11.4843 15.0133L11.4865 16.0133C11.6444 16.0129 11.7684 16.1352 11.7718 16.2886L12.7716 16.2666ZM11.5487 17.6027C12.2489 17.5697 12.8035 16.9732 12.7712 16.2551L11.7722 16.3001C11.7796 16.4652 11.653 16.5967 11.5015 16.6038L11.5487 17.6027ZM7.59994 13.1603C7.45625 13.1669 7.31559 13.0524 7.30789 12.873L6.30881 12.9159C6.33895 13.6177 6.91929 14.1928 7.6461 14.1592L7.59994 13.1603ZM7.86912 12.8576C7.87659 13.0231 7.74966 13.1535 7.60054 13.1603L7.64549 14.1592C8.34795 14.1276 8.90038 13.5282 8.86811 12.8125L7.86912 12.8576ZM7.58345 12.5697C7.74154 12.5694 7.86533 12.6909 7.86874 12.846L8.8685 12.8241C8.85298 12.1172 8.27659 11.5682 7.58121 11.5697L7.58345 12.5697ZM7.30835 12.8934C7.30796 12.7115 7.44592 12.5762 7.60432 12.5692L7.56035 11.5702C6.84825 11.6015 6.30685 12.1961 6.30835 12.8955L7.30835 12.8934ZM6.3126 16.3652C6.34417 17.0651 6.92211 17.6411 7.64985 17.6074L7.60368 16.6085C7.46092 16.6151 7.31976 16.5014 7.31159 16.3201L6.3126 16.3652ZM7.56504 15.0184C6.85372 15.0497 6.31059 15.6435 6.31209 16.3437L7.31209 16.3416C7.3117 16.1605 7.44984 16.0244 7.60901 16.0174L7.56504 15.0184ZM8.87319 16.2723C8.85766 15.565 8.27994 15.0164 7.5859 15.0179L7.58815 16.0179C7.74567 16.0176 7.87003 16.1395 7.87343 16.2942L8.87319 16.2723ZM7.64919 17.6075C8.35225 17.5759 8.90509 16.9768 8.8728 16.2607L7.87381 16.3058C7.88126 16.4709 7.75474 16.6017 7.60434 16.6085L7.64919 17.6075Z" fill="#767676"/>
</g>
</g>
</svg>
