<svg width="25" height="19" viewBox="0 0 25 19" fill="none" xmlns="http://www.w3.org/2000/svg">
<g id="Group 75145">
<rect id="Rectangle 18064" x="5.26166" y="0.5" width="14.4762" height="18" stroke="#767676"/>
<g id="Rectangle 18065">
<mask id="path-2-inside-1_1_547" fill="white">
<path d="M15.4763 9.89C15.4763 7.60354 17.3299 5.75 19.6163 5.75H25.0001V14.03H19.6163C17.3299 14.03 15.4763 12.1765 15.4763 9.89Z"/>
</mask>
<path d="M15.4763 9.89C15.4763 7.60354 17.3299 5.75 19.6163 5.75H25.0001V14.03H19.6163C17.3299 14.03 15.4763 12.1765 15.4763 9.89Z" fill="white"/>
<path fill-rule="evenodd" clip-rule="evenodd" d="M17.5649 13.8953C17.683 13.9262 17.8032 13.9521 17.9251 13.9726C18.1499 14.0103 18.3808 14.03 18.6163 14.03H19.6163C19.0709 14.03 18.558 13.8467 18.1111 13.5242C18.0047 13.4474 17.902 13.3628 17.8036 13.2708C17.6816 13.1569 17.566 13.0318 17.4578 12.8967C17.307 13.0021 17.1835 13.1503 17.1079 13.3328C17.0559 13.4581 17.0313 13.588 17.0313 13.7157C17.2036 13.7872 17.3818 13.8474 17.5649 13.8953ZM15.2708 12.3292C15.5341 12.489 15.8673 12.5255 16.1735 12.3985C16.4992 12.2634 16.7156 11.9761 16.7745 11.6532C16.7144 11.485 16.6626 11.3106 16.6198 11.1308C16.5266 10.7391 16.4763 10.3223 16.4763 9.89C16.4763 9.45771 16.5266 9.0409 16.6198 8.64917C16.6626 8.46944 16.7144 8.295 16.7745 8.12676C16.7156 7.8039 16.4992 7.5166 16.1735 7.38153C15.8673 7.25454 15.5341 7.291 15.2708 7.45078C15.1534 7.61155 15.0473 7.7811 14.9537 7.95826C14.6489 8.53496 14.4763 9.19233 14.4763 9.89C14.4763 10.5877 14.6489 11.245 14.9537 11.8217C15.0473 11.9989 15.1534 12.1685 15.2708 12.3292ZM17.0313 6.06425C17.0313 6.19199 17.0559 6.32186 17.1079 6.4472C17.1835 6.62971 17.307 6.77791 17.4578 6.8833C17.566 6.74815 17.6816 6.62306 17.8036 6.50915C17.902 6.41722 18.0047 6.33258 18.1111 6.25582C18.558 5.93334 19.0709 5.75 19.6163 5.75H18.6163C18.3808 5.75 18.1499 5.76966 17.9251 5.80744C17.8032 5.82794 17.683 5.85377 17.5649 5.88469C17.3818 5.93263 17.2036 5.99279 17.0313 6.06425Z" fill="#767676" mask="url(#path-2-inside-1_1_547)"/>
</g>
<g id="Rectangle 18066">
<mask id="path-4-inside-2_1_547" fill="white">
<path d="M0 5.75H5.38381C7.67026 5.75 9.52381 7.60354 9.52381 9.89C9.52381 12.1765 7.67027 14.03 5.38381 14.03H0V5.75Z"/>
</mask>
<path d="M0 5.75H5.38381C7.67026 5.75 9.52381 7.60354 9.52381 9.89C9.52381 12.1765 7.67027 14.03 5.38381 14.03H0V5.75Z" fill="white"/>
<path fill-rule="evenodd" clip-rule="evenodd" d="M7.19654 13.2708C7.09809 13.3628 6.99545 13.4474 6.88906 13.5242C6.44214 13.8467 5.92921 14.03 5.38381 14.03H6.38381C6.61932 14.03 6.85023 14.0103 7.075 13.9726C7.19697 13.9521 7.31713 13.9262 7.43524 13.8953C7.61835 13.8474 7.79651 13.7872 7.96881 13.7157C7.96885 13.588 7.94425 13.4581 7.89227 13.3328C7.81659 13.1503 7.6931 13.0021 7.54233 12.8967C7.43408 13.0318 7.31852 13.1569 7.19654 13.2708ZM8.2256 11.6532C8.28447 11.9761 8.5009 12.2634 8.82661 12.3985C9.13284 12.5255 9.46605 12.489 9.72928 12.3292C9.8467 12.1685 9.95281 11.9989 10.0464 11.8217C10.3512 11.245 10.5238 10.5877 10.5238 9.89C10.5238 9.19233 10.3512 8.53496 10.0464 7.95826C9.95281 7.7811 9.8467 7.61155 9.72928 7.45078C9.46605 7.291 9.13284 7.25454 8.82661 7.38153C8.5009 7.5166 8.28447 7.8039 8.2256 8.12676C8.28575 8.295 8.33757 8.46945 8.38033 8.64917C8.47356 9.0409 8.52381 9.45771 8.52381 9.89C8.52381 10.3223 8.47356 10.7391 8.38034 11.1308C8.33757 11.3106 8.28575 11.485 8.2256 11.6532ZM7.96881 6.06425C7.79651 5.99279 7.61835 5.93263 7.43524 5.88469C7.31713 5.85377 7.19697 5.82794 7.075 5.80744C6.85023 5.76966 6.61932 5.75 6.38381 5.75H5.38381C5.92921 5.75 6.44213 5.93334 6.88906 6.25582C6.99544 6.33258 7.09809 6.41722 7.19654 6.50915C7.31852 6.62306 7.43408 6.74815 7.54233 6.8833C7.6931 6.77791 7.81659 6.62971 7.89227 6.4472C7.94425 6.32186 7.96885 6.19199 7.96881 6.06425Z" fill="#767676" mask="url(#path-4-inside-2_1_547)"/>
</g>
</g>
</svg>
