<svg width="23" height="24" viewBox="0 0 23 24" fill="none" xmlns="http://www.w3.org/2000/svg">
<g id="gallery-svgrepo-com (1)" clip-path="url(#clip0_1341_4289)">
<g id="Group">
<g id="Group_2">
<path id="Vector" d="M15.502 21.3444H2.17453C1.39146 21.3444 0.754373 20.7073 0.754373 19.9242V4.52121C0.754373 3.73809 1.39146 3.10101 2.17453 3.10101H4.71756C4.92591 3.10101 5.09472 2.93215 5.09472 2.72384C5.09472 2.51554 4.92591 2.34668 4.71756 2.34668H2.17453C0.975479 2.34668 0 3.3222 0 4.52121V19.9242C0 21.1233 0.975479 22.0987 2.17453 22.0987H15.5021C15.7104 22.0987 15.8793 21.9299 15.8793 21.7216C15.8793 21.5133 15.7104 21.3444 15.502 21.3444Z" fill="#D8D8D8"/>
</g>
</g>
<g id="Group_3">
<g id="Group_4">
<path id="Vector_2" d="M20.8255 2.34668H6.11056C5.90222 2.34668 5.7334 2.51554 5.7334 2.72384C5.7334 2.93215 5.90222 3.10105 6.11056 3.10105H20.8255C21.6086 3.10105 22.2457 3.73813 22.2457 4.52126V19.9242C22.2457 20.7073 21.6086 21.3444 20.8255 21.3444H17.0108C16.8025 21.3444 16.6336 21.5133 16.6336 21.7216C16.6336 21.9299 16.8025 22.0987 17.0108 22.0987H20.8255C22.0246 22.0987 23.0001 21.1233 23.0001 19.9242V4.52126C23 3.32225 22.0245 2.34668 20.8255 2.34668Z" fill="#D8D8D8"/>
</g>
</g>
<g id="Group_5">
<g id="Group_6">
<path id="Vector_3" d="M19.788 4.0376H3.21129C2.37268 4.0376 1.6905 4.71978 1.6905 5.55838V7.98731C1.69037 7.99238 1.69046 7.99742 1.6905 8.00249V18.8871C1.6905 19.7239 2.3699 20.4049 3.20607 20.4078C3.20778 20.4078 3.20953 20.408 3.21129 20.408C3.21174 20.408 3.21214 20.4079 3.21259 20.4079H8.77953C8.78007 20.4079 8.78065 20.408 8.78115 20.408C8.78115 20.408 8.78196 20.4079 8.78236 20.4079H19.788C20.6266 20.4079 21.3088 19.7257 21.3088 18.8871V11.2347C21.3088 11.2345 21.3088 11.2343 21.3088 11.2341V5.55838C21.3088 4.71978 20.6266 4.0376 19.788 4.0376ZM2.97024 19.6141C2.66549 19.5127 2.44492 19.2254 2.44492 18.8871V16.1322C3.25845 15.244 4.27122 14.7693 5.45859 14.7233C5.82313 14.7091 6.15223 14.7393 6.41916 14.7817C4.89253 16.1259 3.65458 17.9477 2.97024 19.6141ZM2.44487 8.19233C2.77056 7.97864 3.14633 7.86647 3.54187 7.86647C4.40814 7.86647 5.17365 8.41865 5.44678 9.24063C5.48263 9.34862 5.56533 9.4346 5.67188 9.47467C5.7783 9.5147 5.89725 9.50463 5.99545 9.44713C6.33066 9.25069 6.71367 9.14688 7.10309 9.14688C8.21163 9.14688 9.14821 9.97573 9.28153 11.0748C9.30265 11.249 9.44119 11.3857 9.61571 11.4044C10.3987 11.4886 11.0415 12.0525 11.2537 12.7856C10.6374 12.7477 10.0017 12.8295 9.35849 13.0338C8.59881 13.2751 7.86344 13.6725 7.17317 14.1757C6.86725 14.0873 6.23848 13.9429 5.46192 13.9684C4.63333 13.9956 3.50009 14.2278 2.44492 15.0938L2.44487 8.19233ZM20.5544 18.8871C20.5544 19.3096 20.2106 19.6535 19.788 19.6535H9.39617C9.61876 19.2518 9.87275 18.86 10.1216 18.4776C10.2892 18.2199 10.4627 17.9534 10.6252 17.6857C10.7333 17.5076 10.6766 17.2756 10.4986 17.1675C10.3205 17.0594 10.0886 17.1161 9.98034 17.2941C9.82392 17.5518 9.65376 17.8133 9.48921 18.0663C9.15939 18.5732 8.81996 19.0955 8.54351 19.6535H3.77178C5.10744 16.5663 7.65532 14.3662 9.58673 13.7528C10.7405 13.3863 11.8238 13.4673 12.8141 13.9924C12.7417 14.0592 12.6696 14.1267 12.5978 14.1954C12.1153 14.6569 11.6386 15.1682 11.1811 15.7152C11.129 15.7775 11.0772 15.8401 11.0259 15.9029C10.8941 16.0643 10.918 16.3019 11.0793 16.4337C11.2357 16.5615 11.4793 16.5402 11.6101 16.3802C11.6596 16.3196 11.7094 16.2593 11.7597 16.1992C12.1993 15.6736 12.6567 15.1828 13.1192 14.7406C13.6436 14.2391 14.1852 13.7899 14.7289 13.4052C15.3292 12.9806 15.9461 12.6246 16.5626 12.3472C17.2386 12.043 17.9313 11.8255 18.6215 11.7007C19.2573 11.5857 19.906 11.5475 20.5543 11.585V18.8871H20.5544ZM20.5544 10.83C19.8609 10.7932 19.1675 10.8354 18.4872 10.9584C17.7366 11.0941 16.985 11.3299 16.2531 11.6593C15.5924 11.9566 14.9331 12.3368 14.2932 12.7895C13.9987 12.9978 13.7051 13.2241 13.4145 13.4661C12.9793 13.2046 12.5227 13.0173 12.0507 12.9044C11.8817 11.8225 11.0511 10.9372 9.98205 10.7011C9.68677 9.36668 8.49594 8.39255 7.103 8.39255C6.72265 8.39255 6.34674 8.46631 5.99671 8.60799C5.52903 7.6986 4.58891 7.11214 3.54182 7.11214C3.15774 7.11214 2.78727 7.18932 2.44483 7.33801V5.55843C2.44483 5.13585 2.78871 4.79202 3.21129 4.79202H19.788C20.2105 4.79202 20.5543 5.13585 20.5543 5.55843V10.83H20.5544Z" fill="#D8D8D8"/>
</g>
</g>
<g id="Group_7">
<g id="Group_8">
<path id="Vector_4" d="M15.3018 6.6665C14.2039 6.6665 13.3105 7.55982 13.3105 8.6578C13.3105 9.75578 14.2039 10.6491 15.3018 10.6491C16.3998 10.6491 17.2931 9.75578 17.2931 8.6578C17.2932 7.55982 16.3999 6.6665 15.3018 6.6665ZM15.3018 9.89481C14.6198 9.89481 14.0649 9.33989 14.0649 8.65785C14.0649 7.97575 14.6198 7.42088 15.3018 7.42088C15.9839 7.42088 16.5388 7.97575 16.5388 8.65785C16.5388 9.33989 15.9839 9.89481 15.3018 9.89481Z" fill="#D8D8D8"/>
</g>
</g>
</g>
<defs>
<clipPath id="clip0_1341_4289">
<rect width="23" height="23" fill="white" transform="translate(0 0.722656)"/>
</clipPath>
</defs>
</svg>
