<svg width="21" height="21" viewBox="0 0 21 21" fill="none" xmlns="http://www.w3.org/2000/svg">
<rect x="0.5" y="0.5" width="20" height="20" rx="6.5" stroke="white"/>
<path d="M9.97076 17.1693V15.9373C8.92542 15.82 8.09876 15.4467 7.49076 14.8173C6.88276 14.188 6.57876 13.388 6.57876 12.4173H7.98676C7.98676 12.9827 8.15209 13.4893 8.48276 13.9373C8.82409 14.3747 9.32009 14.6573 9.97076 14.7853V10.4493C9.89609 10.428 9.81609 10.4067 9.73076 10.3853C9.65609 10.3533 9.58142 10.3267 9.50676 10.3053C8.64276 10.0067 8.00276 9.63868 7.58676 9.20134C7.17076 8.75334 6.96276 8.17201 6.96276 7.45734C6.95209 6.62534 7.21342 5.93201 7.74676 5.37734C8.29076 4.82268 9.03209 4.50268 9.97076 4.41734V3.12134H11.0748V4.41734C11.9708 4.52401 12.6854 4.86001 13.2188 5.42534C13.7521 5.99068 14.0241 6.67868 14.0348 7.48934H12.6268C12.6268 7.09468 12.4988 6.71601 12.2428 6.35334C11.9868 5.98001 11.5974 5.72934 11.0748 5.60134V9.47334C11.1601 9.49468 11.2454 9.52134 11.3308 9.55334C11.4161 9.58534 11.5068 9.61201 11.6028 9.63334C12.1361 9.82534 12.6161 10.0493 13.0428 10.3053C13.4694 10.5613 13.8001 10.892 14.0348 11.2973C14.2801 11.7027 14.4028 12.22 14.4028 12.8493C14.4028 13.3507 14.2801 13.8253 14.0348 14.2733C13.7894 14.7213 13.4161 15.1 12.9148 15.4093C12.4241 15.7187 11.8108 15.9 11.0748 15.9533V17.1693H9.97076ZM8.35476 7.32934C8.35476 7.82001 8.49876 8.19334 8.78676 8.44934C9.07476 8.69468 9.46942 8.90801 9.97076 9.08934V5.56934C9.49076 5.64401 9.10142 5.83601 8.80276 6.14534C8.50409 6.44401 8.35476 6.83868 8.35476 7.32934ZM13.0108 12.9293C13.0108 12.3107 12.8294 11.852 12.4668 11.5533C12.1041 11.2547 11.6401 11.0093 11.0748 10.8173V14.8173C11.6934 14.7427 12.1681 14.5293 12.4988 14.1773C12.8401 13.8253 13.0108 13.4093 13.0108 12.9293Z" fill="white"/>
</svg>
