<svg width="23" height="23" viewBox="0 0 23 23" fill="none" xmlns="http://www.w3.org/2000/svg">
<path opacity="0.01" fill-rule="evenodd" clip-rule="evenodd" d="M0 0V23H23V0H0Z" fill="#1C8FF8" fill-opacity="0.338428"/>
<path fill-rule="evenodd" clip-rule="evenodd" d="M11.2605 14.4185C12.7401 14.4185 13.9395 13.2191 13.9395 11.7395C13.9395 10.26 12.7401 9.06055 11.2605 9.06055C9.78096 9.06055 8.58154 10.26 8.58154 11.7395C8.58154 13.2191 9.78096 14.4185 11.2605 14.4185Z" stroke="url(#paint0_linear_1330_1052)" stroke-width="1.5" stroke-linecap="round" stroke-linejoin="round"/>
<path fill-rule="evenodd" clip-rule="evenodd" d="M17.8686 14.4184C17.6254 14.9695 17.7421 15.6131 18.1632 16.0436L18.2168 16.0972C18.5522 16.4322 18.7406 16.8868 18.7406 17.3608C18.7406 17.8348 18.5522 18.2894 18.2168 18.6244C17.8818 18.9598 17.4273 19.1482 16.9532 19.1482C16.4792 19.1482 16.0247 18.9598 15.6897 18.6244L15.6361 18.5708C15.2055 18.1496 14.5619 18.0329 14.0108 18.2761C13.471 18.5075 13.1202 19.0373 13.1178 19.6245V19.7764C13.1178 20.7627 12.3182 21.5623 11.3319 21.5623C10.3455 21.5623 9.54587 20.7627 9.54587 19.7764V19.696C9.53172 19.0911 9.14927 18.5564 8.58144 18.3476C8.03038 18.1044 7.38678 18.2211 6.95619 18.6423L6.90261 18.6958C6.56762 19.0312 6.11305 19.2196 5.63903 19.2196C5.16501 19.2196 4.71044 19.0312 4.37544 18.6958C4.04008 18.3608 3.85164 17.9063 3.85164 17.4322C3.85164 16.9582 4.04008 16.5037 4.37544 16.1687L4.42902 16.1151C4.85022 15.6845 4.96692 15.0409 4.72371 14.4898C4.49237 13.95 3.96256 13.5992 3.37529 13.5968H3.22348C2.23711 13.5968 1.4375 12.7972 1.4375 11.8109C1.4375 10.8245 2.23711 10.0249 3.22348 10.0249H3.30385C3.9087 10.0107 4.44343 9.62827 4.65227 9.06044C4.89548 8.50939 4.77878 7.86579 4.35759 7.4352L4.30401 7.38162C3.96864 7.04662 3.7802 6.59205 3.7802 6.11803C3.7802 5.64402 3.96864 5.18944 4.30401 4.85445C4.639 4.51908 5.09357 4.33064 5.56759 4.33064C6.04161 4.33064 6.49618 4.51908 6.83117 4.85445L6.88475 4.90803C7.31534 5.32922 7.95894 5.44592 8.51 5.20272H8.58144C9.12123 4.97137 9.47209 4.44157 9.47443 3.8543V3.70249C9.47443 2.71612 10.274 1.9165 11.2604 1.9165C12.2468 1.9165 13.0464 2.71612 13.0464 3.70249V3.78286C13.0487 4.37013 13.3996 4.89993 13.9394 5.13128C14.4905 5.37448 15.1341 5.25778 15.5646 4.83659L15.6182 4.78301C15.9532 4.44764 16.4078 4.2592 16.8818 4.2592C17.3558 4.2592 17.8104 4.44764 18.1454 4.78301C18.4808 5.118 18.6692 5.57258 18.6692 6.04659C18.6692 6.52061 18.4808 6.97518 18.1454 7.31018L18.0918 7.36376C17.6706 7.79435 17.5539 8.43795 17.7971 8.989V9.06044C18.0285 9.60023 18.5583 9.95109 19.1455 9.95344H19.2973C20.2837 9.95344 21.0833 10.753 21.0833 11.7394C21.0833 12.7258 20.2837 13.5254 19.2973 13.5254H19.217C18.6297 13.5277 18.0999 13.8786 17.8686 14.4184Z" stroke="url(#paint1_linear_1330_1052)" stroke-width="1.5" stroke-linecap="round" stroke-linejoin="round"/>
<defs>
<linearGradient id="paint0_linear_1330_1052" x1="11.2605" y1="9.06055" x2="11.2605" y2="14.4185" gradientUnits="userSpaceOnUse">
<stop stop-color="#FFB459"/>
<stop offset="1" stop-color="#F1573D"/>
</linearGradient>
<linearGradient id="paint1_linear_1330_1052" x1="11.2604" y1="1.9165" x2="11.2604" y2="21.5623" gradientUnits="userSpaceOnUse">
<stop stop-color="#FFB459"/>
<stop offset="1" stop-color="#F1573D"/>
</linearGradient>
</defs>
</svg>
