<svg width="18" height="19" viewBox="0 0 18 19" fill="none" xmlns="http://www.w3.org/2000/svg">
<g id="Calendar">
<path id="Fill 1" opacity="0.4" fill-rule="evenodd" clip-rule="evenodd" d="M5.90641 2.90552H11.5781V1.62329H5.90641V2.90552ZM4.61588 1.67708V1.68346C4.17314 1.72256 3.73515 1.80794 3.30903 1.9364V1.93161C3.29636 1.93679 3.28444 1.94077 3.27299 1.94459C3.25796 1.9496 3.24377 1.95434 3.22983 1.96113C3.19577 1.96911 3.16251 1.98108 3.13083 1.99624C3.03737 2.02576 2.94391 2.06087 2.85599 2.09678C2.83263 2.10555 2.80926 2.11573 2.7859 2.1259L2.78589 2.1259C2.76253 2.13608 2.73916 2.14625 2.7158 2.15502C2.68373 2.16978 2.65026 2.18594 2.6168 2.2021L2.61679 2.2021C2.58333 2.21826 2.54987 2.23442 2.51779 2.24918L2.35939 2.33774C2.3301 2.35225 2.30299 2.36926 2.27533 2.38661L2.27532 2.38661L2.27532 2.38662C2.25885 2.39695 2.24218 2.40741 2.22474 2.41753C1.98634 2.56674 1.76536 2.74148 1.56577 2.94016L1.55389 2.95213C1.52768 2.9818 1.50158 3.01058 1.47583 3.03898L1.47582 3.03899L1.47582 3.03899C1.43233 3.08696 1.38984 3.13381 1.34955 3.18192L1.33767 3.19309C0.689786 4.06121 0.365054 5.13119 0.421288 6.21554V6.55944H1.70042V6.21235C1.70042 4.70112 2.19623 3.7604 3.29953 3.27847C3.72089 3.10532 4.16601 2.9984 4.61905 2.95931H4.63093V1.68267L4.61588 1.67708ZM16.1098 3.17653L16.1154 3.1877C16.7625 4.05661 17.0856 5.1274 17.0286 6.21174V6.55883H15.7503V6.20297C15.7772 5.56305 15.6449 4.92632 15.3645 4.35104C15.0953 3.85873 14.6644 3.47654 14.144 3.26908C13.7298 3.09594 13.291 2.98822 12.8435 2.94992V1.67967C13.2863 1.71956 13.7242 1.80414 14.1511 1.9326V1.92622C14.1751 1.93679 14.1934 1.94307 14.2249 1.95386L14.2304 1.95574C14.2449 1.96075 14.2585 1.96575 14.272 1.9707C14.2907 1.97758 14.3091 1.98435 14.3294 1.99085C14.4169 2.01874 14.4988 2.05163 14.5831 2.08546L14.5979 2.09138C14.6367 2.10464 14.6734 2.12109 14.7064 2.13591C14.7171 2.14071 14.7274 2.14534 14.7373 2.14963C14.807 2.17915 14.8782 2.21426 14.9353 2.24378C14.9733 2.26294 15.0103 2.28345 15.0451 2.30268C15.0639 2.31308 15.082 2.32311 15.0992 2.33235C15.1276 2.34757 15.1523 2.36385 15.176 2.3795C15.1933 2.39094 15.2101 2.40204 15.2275 2.41214C15.4667 2.56214 15.6901 2.73768 15.892 2.93476L15.8992 2.94673C15.9736 3.01934 16.0441 3.09594 16.1098 3.17653Z" fill="white"/>
<path id="Fill 4" d="M12.8808 0.786299V3.61173C12.8808 3.96773 12.5833 4.25607 12.216 4.25607C11.8487 4.25607 11.5512 3.96773 11.5512 3.61173V0.792742C11.5479 0.436745 11.8437 0.145986 12.211 0.14357C12.5783 0.141154 12.8783 0.427079 12.8808 0.783077V0.786299Z" fill="white"/>
<path id="Fill 6" d="M5.89967 0.79629V3.61474C5.89967 3.97228 5.60181 4.26217 5.23445 4.26217C4.8671 4.26217 4.57007 3.97228 4.57007 3.61474V0.79629C4.57007 0.43875 4.8671 0.149658 5.23445 0.149658C5.60181 0.149658 5.89967 0.43875 5.89967 0.79629Z" fill="white"/>
<path id="Fill 8" fill-rule="evenodd" clip-rule="evenodd" d="M0.415039 13.5107V6.55884H17.035V13.5107C17.035 16.5422 15.2914 18.0739 11.8358 18.0739H5.60631C2.15867 18.0739 0.415039 16.5422 0.415039 13.5107ZM4.16341 10.4245C4.16341 10.8451 4.50421 11.1864 4.92427 11.1864C5.35225 11.1864 5.69305 10.8372 5.68513 10.4166C5.68513 9.99597 5.34433 9.65473 4.93219 9.65473H4.92427C4.50421 9.65473 4.16341 10.0039 4.16341 10.4245ZM7.96009 10.4248C7.96009 10.8454 8.30882 11.1866 8.72887 11.1866C9.14893 11.1866 9.48973 10.8454 9.48973 10.4168C9.48973 10.0042 9.14893 9.66291 8.72887 9.65497H8.72095C8.30089 9.66291 7.96009 10.0042 7.96009 10.4248ZM12.5255 11.1864C12.1054 11.1864 11.7646 10.8451 11.7646 10.4245C11.7646 10.0039 12.0975 9.66269 12.5255 9.66269C12.9456 9.66269 13.2864 10.0039 13.2864 10.4245C13.2864 10.8451 12.9456 11.1864 12.5255 11.1864ZM12.5254 14.4399C12.1053 14.4399 11.7645 14.0986 11.7566 13.678C11.7566 13.2574 12.0974 12.9162 12.5174 12.9162H12.5254C12.9454 12.9162 13.2862 13.2574 13.2862 13.678C13.2862 14.0986 12.9454 14.4399 12.5254 14.4399ZM8.72899 14.44C8.30893 14.44 7.96021 14.0988 7.96021 13.6782C7.96021 13.2576 8.30101 12.9163 8.72106 12.9084H8.72899C9.14904 12.9163 9.48192 13.2576 9.48985 13.6703C9.48985 14.0988 9.14904 14.44 8.72899 14.44ZM4.92432 14.44C4.50427 14.44 4.16347 14.0988 4.16347 13.6782C4.15554 13.2576 4.49634 12.9084 4.92432 12.9084C5.34438 12.9084 5.68518 13.2497 5.68518 13.6703C5.68518 14.0909 5.34438 14.44 4.92432 14.44Z" fill="white"/>
</g>
</svg>
