<svg width="25" height="24" viewBox="0 0 25 24" fill="none" xmlns="http://www.w3.org/2000/svg">
<g id="filter-circle">
<path id="Vector" d="M12.1622 2.28943C6.84137 2.28943 2.51245 6.61834 2.51245 11.9391C2.51245 17.2599 6.84137 21.5889 12.1622 21.5889C17.483 21.5889 21.8119 17.2599 21.8119 11.9391C21.8119 6.61834 17.483 2.28943 12.1622 2.28943ZM13.6467 16.3929H10.6776C10.4807 16.3929 10.2919 16.3146 10.1527 16.1754C10.0135 16.0362 9.93531 15.8474 9.93531 15.6506C9.93531 15.4537 10.0135 15.2649 10.1527 15.1257C10.2919 14.9865 10.4807 14.9083 10.6776 14.9083H13.6467C13.8436 14.9083 14.0324 14.9865 14.1716 15.1257C14.3108 15.2649 14.389 15.4537 14.389 15.6506C14.389 15.8474 14.3108 16.0362 14.1716 16.1754C14.0324 16.3146 13.8436 16.3929 13.6467 16.3929ZM15.8736 13.4237H8.45074C8.25387 13.4237 8.06507 13.3455 7.92586 13.2063C7.78665 13.0671 7.70845 12.8783 7.70845 12.6814C7.70845 12.4846 7.78665 12.2958 7.92586 12.1565C8.06507 12.0173 8.25387 11.9391 8.45074 11.9391H15.8736C16.0705 11.9391 16.2593 12.0173 16.3985 12.1565C16.5377 12.2958 16.6159 12.4846 16.6159 12.6814C16.6159 12.8783 16.5377 13.0671 16.3985 13.2063C16.2593 13.3455 16.0705 13.4237 15.8736 13.4237ZM17.3582 10.4546H6.96616C6.7693 10.4546 6.58049 10.3764 6.44129 10.2372C6.30208 10.098 6.22388 9.90915 6.22388 9.71228C6.22388 9.51542 6.30208 9.32661 6.44129 9.18741C6.58049 9.0482 6.7693 8.97 6.96616 8.97H17.3582C17.555 8.97 17.7438 9.0482 17.883 9.18741C18.0222 9.32661 18.1004 9.51542 18.1004 9.71228C18.1004 9.90915 18.0222 10.098 17.883 10.2372C17.7438 10.3764 17.555 10.4546 17.3582 10.4546Z" fill="white"/>
</g>
</svg>
