<svg width="25" height="24" viewBox="0 0 25 24" fill="none" xmlns="http://www.w3.org/2000/svg">
<g id="filter-circle">
<path id="Vector" d="M12.1623 2.28955C6.8415 2.28955 2.51259 6.61847 2.51259 11.9393C2.51259 17.2601 6.8415 21.589 12.1623 21.589C17.4831 21.589 21.812 17.2601 21.812 11.9393C21.812 6.61847 17.4831 2.28955 12.1623 2.28955ZM13.6469 16.393H10.6777C10.4809 16.393 10.2921 16.3148 10.1529 16.1756C10.0136 16.0364 9.93544 15.8476 9.93544 15.6507C9.93544 15.4538 10.0136 15.265 10.1529 15.1258C10.2921 14.9866 10.4809 14.9084 10.6777 14.9084H13.6469C13.8437 14.9084 14.0325 14.9866 14.1717 15.1258C14.311 15.265 14.3892 15.4538 14.3892 15.6507C14.3892 15.8476 14.311 16.0364 14.1717 16.1756C14.0325 16.3148 13.8437 16.393 13.6469 16.393ZM15.8737 13.4238H8.45087C8.25401 13.4238 8.0652 13.3456 7.926 13.2064C7.78679 13.0672 7.70859 12.8784 7.70859 12.6815C7.70859 12.4847 7.78679 12.2959 7.926 12.1567C8.0652 12.0175 8.25401 11.9393 8.45087 11.9393H15.8737C16.0706 11.9393 16.2594 12.0175 16.3986 12.1567C16.5378 12.2959 16.616 12.4847 16.616 12.6815C16.616 12.8784 16.5378 13.0672 16.3986 13.2064C16.2594 13.3456 16.0706 13.4238 15.8737 13.4238ZM17.3583 10.4547H6.9663C6.76943 10.4547 6.58063 10.3765 6.44143 10.2373C6.30222 10.0981 6.22402 9.90927 6.22402 9.71241C6.22402 9.51554 6.30222 9.32674 6.44143 9.18753C6.58063 9.04833 6.76943 8.97012 6.9663 8.97012H17.3583C17.5552 8.97012 17.744 9.04833 17.8832 9.18753C18.0224 9.32674 18.1006 9.51554 18.1006 9.71241C18.1006 9.90927 18.0224 10.0981 17.8832 10.2373C17.744 10.3765 17.5552 10.4547 17.3583 10.4547Z" fill="url(#paint0_linear_1_144)"/>
</g>
<defs>
<linearGradient id="paint0_linear_1_144" x1="12.1623" y1="2.28955" x2="12.1623" y2="21.589" gradientUnits="userSpaceOnUse">
<stop stop-color="#FFB459"/>
<stop offset="0.135417" stop-color="#FFB459"/>
<stop offset="1" stop-color="#F1573D"/>
</linearGradient>
</defs>
</svg>
