<svg width="170" height="158" viewBox="0 0 170 158" fill="none" xmlns="http://www.w3.org/2000/svg">
<g id="schedule 1" clip-path="url(#clip0_1205_3008)">
<g id="Group">
<g id="Group_2">
<path id="Vector" d="M81.9299 141.313H17.6942C11.4856 141.313 6.45288 136.28 6.45288 130.072V118.83H92.7279L81.9299 141.313Z" fill="#D3DCFB"/>
<path id="Vector_2" d="M152.606 51.379V98.6068V130.071H17.6942C11.4856 130.071 6.45288 125.038 6.45288 118.829V51.379L85.1506 23.2744L152.606 51.379Z" fill="#EBF5FC"/>
<g id="Group_3">
<path id="Vector_3" d="M26.3051 73.8627H20.333C18.878 73.8627 17.6982 72.683 17.6982 71.2279V65.2559C17.6982 63.8008 18.878 62.6211 20.333 62.6211H26.3051C27.7601 62.6211 28.9399 63.8008 28.9399 65.2559V71.2279C28.9399 72.683 27.7601 73.8627 26.3051 73.8627Z" fill="#3C58A0"/>
<path id="Vector_4" d="M48.7887 73.8627H42.8167C41.3616 73.8627 40.1819 72.683 40.1819 71.2279V65.2559C40.1819 63.8008 41.3616 62.6211 42.8167 62.6211H48.7887C50.2438 62.6211 51.4235 63.8008 51.4235 65.2559V71.2279C51.4235 72.683 50.2438 73.8627 48.7887 73.8627Z" fill="#3C58A0"/>
<path id="Vector_5" d="M71.2719 73.8627H65.2998C63.8448 73.8627 62.665 72.683 62.665 71.2279V65.2559C62.665 63.8008 63.8448 62.6211 65.2998 62.6211H71.2719C72.727 62.6211 73.9067 63.8008 73.9067 65.2559V71.2279C73.9067 72.683 72.7273 73.8627 71.2719 73.8627Z" fill="#3C58A0"/>
<path id="Vector_6" d="M93.7555 73.8627H87.7835C86.3284 73.8627 85.1487 72.683 85.1487 71.2279V65.2559C85.1487 63.8008 86.3284 62.6211 87.7835 62.6211H93.7555C95.2106 62.6211 96.3903 63.8008 96.3903 65.2559V71.2279C96.3903 72.683 95.2106 73.8627 93.7555 73.8627Z" fill="#3C58A0"/>
<path id="Vector_7" d="M116.235 73.8627H110.263C108.808 73.8627 107.628 72.683 107.628 71.2279V65.2559C107.628 63.8008 108.808 62.6211 110.263 62.6211H116.235C117.69 62.6211 118.87 63.8008 118.87 65.2559V71.2279C118.87 72.683 117.691 73.8627 116.235 73.8627Z" fill="#3C58A0"/>
<path id="Vector_8" d="M138.719 73.8627H132.747C131.292 73.8627 130.112 72.683 130.112 71.2279V65.2559C130.112 63.8008 131.292 62.6211 132.747 62.6211H138.719C140.174 62.6211 141.353 63.8008 141.353 65.2559V71.2279C141.353 72.683 140.174 73.8627 138.719 73.8627Z" fill="#3C58A0"/>
<path id="Vector_9" d="M26.3051 96.3459H20.333C18.878 96.3459 17.6982 95.1661 17.6982 93.7111V87.739C17.6982 86.284 18.878 85.1042 20.333 85.1042H26.3051C27.7601 85.1042 28.9399 86.284 28.9399 87.739V93.7111C28.9399 95.1665 27.7601 96.3459 26.3051 96.3459Z" fill="#3C58A0"/>
<path id="Vector_10" d="M48.7887 96.3459H42.8167C41.3616 96.3459 40.1819 95.1661 40.1819 93.7111V87.739C40.1819 86.284 41.3616 85.1042 42.8167 85.1042H48.7887C50.2438 85.1042 51.4235 86.284 51.4235 87.739V93.7111C51.4235 95.1665 50.2438 96.3459 48.7887 96.3459Z" fill="#3C58A0"/>
<path id="Vector_11" d="M71.2719 96.3459H65.2998C63.8448 96.3459 62.665 95.1661 62.665 93.7111V87.739C62.665 86.284 63.8448 85.1042 65.2998 85.1042H71.2719C72.727 85.1042 73.9067 86.284 73.9067 87.739V93.7111C73.9067 95.1665 72.7273 96.3459 71.2719 96.3459Z" fill="#3C58A0"/>
<path id="Vector_12" d="M96.3903 96.3459V87.9146C96.3903 86.3624 95.1322 85.1042 93.58 85.1042H87.959C86.4068 85.1042 85.1487 86.3624 85.1487 87.9146V93.5355C85.1487 95.0878 86.4071 96.3459 87.959 96.3459H96.3903Z" fill="#3C58A0"/>
<path id="Vector_13" d="M26.3051 118.83H20.333C18.878 118.83 17.6982 117.65 17.6982 116.195V110.223C17.6982 108.768 18.878 107.588 20.333 107.588H26.3051C27.7601 107.588 28.9399 108.768 28.9399 110.223V116.195C28.9399 117.65 27.7601 118.83 26.3051 118.83Z" fill="#3C58A0"/>
<path id="Vector_14" d="M48.7887 118.83H42.8167C41.3616 118.83 40.1819 117.65 40.1819 116.195V110.223C40.1819 108.768 41.3616 107.588 42.8167 107.588H48.7887C50.2438 107.588 51.4235 108.768 51.4235 110.223V116.195C51.4235 117.65 50.2438 118.83 48.7887 118.83Z" fill="#3C58A0"/>
<path id="Vector_15" d="M71.2719 118.83H65.2998C63.8448 118.83 62.665 117.65 62.665 116.195V110.223C62.665 108.768 63.8448 107.588 65.2998 107.588H71.2719C72.727 107.588 73.9067 108.768 73.9067 110.223V116.195C73.9067 117.65 72.7273 118.83 71.2719 118.83Z" fill="#3C58A0"/>
</g>
<path id="Vector_16" d="M138.639 62.6206H132.826C132.475 62.6206 132.14 62.6898 131.831 62.8113C132.837 63.2085 133.55 64.1873 133.55 65.3348V71.1478C133.55 72.2952 132.837 73.274 131.831 73.6712C132.14 73.7931 132.475 73.8622 132.826 73.8622H138.639C140.139 73.8622 141.354 72.6469 141.354 71.1481V65.3351C141.354 63.8359 140.138 62.6206 138.639 62.6206Z" fill="#2A428C"/>
<path id="Vector_17" d="M116.156 62.6206H110.343C109.991 62.6206 109.656 62.6898 109.347 62.8113C110.354 63.2085 111.066 64.1873 111.066 65.3348V71.1478C111.066 72.2952 110.353 73.274 109.347 73.6712C109.656 73.7931 109.991 73.8622 110.343 73.8622H116.156C117.655 73.8622 118.87 72.6469 118.87 71.1481V65.3351C118.87 63.8359 117.655 62.6206 116.156 62.6206Z" fill="#2A428C"/>
<path id="Vector_18" d="M93.6762 62.6206H87.8632C87.5115 62.6206 87.1765 62.6898 86.8679 62.8113C87.8741 63.2085 88.5871 64.1873 88.5871 65.3348V71.1478C88.5871 72.2952 87.8741 73.274 86.8679 73.6712C87.1765 73.7931 87.5115 73.8622 87.8632 73.8622H93.6762C95.1754 73.8622 96.3907 72.6469 96.3907 71.1481V65.3351C96.3904 63.8359 95.1751 62.6206 93.6762 62.6206Z" fill="#2A428C"/>
<path id="Vector_19" d="M71.1926 62.6206H65.3796C65.0278 62.6206 64.6929 62.6898 64.3843 62.8113C65.3904 63.2085 66.1035 64.1873 66.1035 65.3348V71.1478C66.1035 72.2952 65.3904 73.274 64.3843 73.6712C64.6929 73.7931 65.0278 73.8622 65.3796 73.8622H71.1926C72.6918 73.8622 73.907 72.6469 73.907 71.1481V65.3351C73.9067 63.8359 72.6918 62.6206 71.1926 62.6206Z" fill="#2A428C"/>
<path id="Vector_20" d="M48.7089 62.6206H42.8959C42.5442 62.6206 42.2092 62.6898 41.9006 62.8113C42.9068 63.2085 43.6195 64.1873 43.6195 65.3348V71.1478C43.6195 72.2952 42.9065 73.274 41.9006 73.6712C42.2092 73.7931 42.5442 73.8622 42.8959 73.8622H48.7089C50.2081 73.8622 51.4234 72.6469 51.4234 71.1481V65.3351C51.4234 63.8359 50.2081 62.6206 48.7089 62.6206Z" fill="#2A428C"/>
<path id="Vector_21" d="M26.2258 62.6206H20.4128C20.061 62.6206 19.7261 62.6898 19.4175 62.8113C20.4236 63.2085 21.1367 64.1873 21.1367 65.3348V71.1478C21.1367 72.2952 20.4236 73.274 19.4175 73.6712C19.7261 73.7931 20.061 73.8622 20.4128 73.8622H26.2258C27.7249 73.8622 28.9402 72.6469 28.9402 71.1481V65.3351C28.9399 63.8359 27.7246 62.6206 26.2258 62.6206Z" fill="#2A428C"/>
<path id="Vector_22" d="M26.2258 85.1042H20.4128C20.061 85.1042 19.7261 85.1734 19.4175 85.2949C20.4236 85.6921 21.1367 86.671 21.1367 87.8184V93.6317C21.1367 94.7792 20.4236 95.758 19.4175 96.1552C19.7261 96.277 20.061 96.3462 20.4128 96.3462H26.2258C27.7249 96.3462 28.9402 95.1309 28.9402 93.632V87.8187C28.9399 86.3195 27.7246 85.1042 26.2258 85.1042Z" fill="#2A428C"/>
<path id="Vector_23" d="M26.2258 107.588H20.4128C20.061 107.588 19.7261 107.657 19.4175 107.779C20.4236 108.176 21.1367 109.155 21.1367 110.302V116.115C21.1367 117.263 20.4236 118.242 19.4175 118.639C19.7261 118.761 20.061 118.83 20.4128 118.83H26.2258C27.7249 118.83 28.9402 117.615 28.9402 116.116V110.302C28.9399 108.803 27.7246 107.588 26.2258 107.588Z" fill="#2A428C"/>
<path id="Vector_24" d="M48.7089 85.1042H42.8959C42.5442 85.1042 42.2092 85.1734 41.9006 85.2949C42.9068 85.6921 43.6195 86.671 43.6195 87.8184V93.6317C43.6195 94.7792 42.9065 95.758 41.9006 96.1552C42.2092 96.277 42.5442 96.3462 42.8959 96.3462H48.7089C50.2081 96.3462 51.4234 95.1309 51.4234 93.632V87.8187C51.4234 86.3195 50.2081 85.1042 48.7089 85.1042Z" fill="#2A428C"/>
<path id="Vector_25" d="M48.7089 107.588H42.8959C42.5442 107.588 42.2092 107.657 41.9006 107.779C42.9068 108.176 43.6195 109.155 43.6195 110.302V116.115C43.6195 117.263 42.9065 118.242 41.9006 118.639C42.2092 118.761 42.5442 118.83 42.8959 118.83H48.7089C50.2081 118.83 51.4234 117.615 51.4234 116.116V110.302C51.4234 108.803 50.2081 107.588 48.7089 107.588Z" fill="#2A428C"/>
<path id="Vector_26" d="M71.1926 85.1042H65.3796C65.0278 85.1042 64.6929 85.1734 64.3843 85.2949C65.3904 85.6921 66.1035 86.671 66.1035 87.8184V93.6317C66.1035 94.7792 65.3904 95.758 64.3843 96.1552C64.6929 96.277 65.0278 96.3462 65.3796 96.3462H71.1926C72.6918 96.3462 73.907 95.1309 73.907 93.632V87.8187C73.9067 86.3195 72.6918 85.1042 71.1926 85.1042Z" fill="#2A428C"/>
<path id="Vector_27" d="M96.3902 96.3459V87.8184C96.3902 86.3192 95.1749 85.1042 93.6757 85.1042H87.8627C87.511 85.1042 87.176 85.1734 86.8674 85.2949C87.8736 85.6921 88.5866 86.671 88.5866 87.8184V93.6317C88.5866 94.7792 87.8736 95.758 86.8674 96.1552C87.176 96.277 87.511 96.3462 87.8627 96.3462H96.3902V96.3459Z" fill="#2A428C"/>
<path id="Vector_28" d="M71.1926 107.588H65.3796C65.0278 107.588 64.6929 107.657 64.3843 107.779C65.3904 108.176 66.1035 109.155 66.1035 110.302V116.115C66.1035 117.263 65.3904 118.242 64.3843 118.639C64.6929 118.761 65.0278 118.83 65.3796 118.83H71.1926C72.6918 118.83 73.907 117.615 73.907 116.116V110.302C73.9067 108.803 72.6918 107.588 71.1926 107.588Z" fill="#2A428C"/>
<path id="Vector_29" d="M144.797 48.1255V98.6069V130.071H152.606V98.6069V51.3791L144.797 48.1255Z" fill="#D3DCFB"/>
<path id="Vector_30" d="M152.606 51.3791V23.2745C152.606 17.066 147.573 12.0332 141.365 12.0332H17.6942C11.4856 12.0332 6.45288 17.066 6.45288 23.2745V51.3791H152.606Z" fill="#FF4155"/>
<g id="Group_4">
<g id="Group_5">
<g id="Group_6">
<path id="Vector_31" d="M41.8744 25.8193H34.5572C33.1516 25.8193 32.0127 24.6801 32.0127 23.2748C32.0127 21.8694 33.1519 20.7302 34.5572 20.7302H41.8744C43.28 20.7302 44.4189 21.8694 44.4189 23.2748C44.4189 24.6801 43.2797 25.8193 41.8744 25.8193Z" fill="#E80054"/>
</g>
<g id="Group_7">
<path id="Vector_32" d="M59.8509 25.8193H52.5338C51.1281 25.8193 49.9893 24.6801 49.9893 23.2748C49.9893 21.8694 51.1285 20.7302 52.5338 20.7302H59.8509C61.2566 20.7302 62.3955 21.8694 62.3955 23.2748C62.3955 24.6801 61.2566 25.8193 59.8509 25.8193Z" fill="#E80054"/>
</g>
<g id="Group_8">
<path id="Vector_33" d="M106.518 25.8193H99.2006C97.7949 25.8193 96.656 24.6801 96.656 23.2748C96.656 21.8694 97.7952 20.7302 99.2006 20.7302H106.518C107.924 20.7302 109.063 21.8694 109.063 23.2748C109.063 24.6801 107.924 25.8193 106.518 25.8193Z" fill="#E80054"/>
</g>
<g id="Group_9">
<path id="Vector_34" d="M124.495 25.8193H117.177C115.772 25.8193 114.633 24.6801 114.633 23.2748C114.633 21.8694 115.772 20.7302 117.177 20.7302H124.495C125.9 20.7302 127.039 21.8694 127.039 23.2748C127.039 24.6801 125.9 25.8193 124.495 25.8193Z" fill="#E80054"/>
</g>
</g>
</g>
<path id="Vector_35" d="M54.2302 21.8695C54.2302 25.7499 51.0846 28.8955 47.2042 28.8955C43.3238 28.8955 40.1782 25.7499 40.1782 21.8695V7.81724C40.1779 3.93686 43.3235 0.79126 47.2039 0.79126C51.0842 0.79126 54.2298 3.93686 54.2298 7.81724V21.8695H54.2302Z" fill="#EBF5FC"/>
<path id="Vector_36" d="M118.874 21.8695C118.874 25.7499 115.728 28.8955 111.848 28.8955C107.967 28.8955 104.822 25.7499 104.822 21.8695V7.81724C104.822 3.93686 107.967 0.79126 111.848 0.79126C115.728 0.79126 118.874 3.93686 118.874 7.81724V21.8695H118.874Z" fill="#EBF5FC"/>
<path id="Vector_37" d="M111.848 0.79126C110.405 0.79126 109.065 1.22732 107.949 1.97296C109.835 3.23304 111.078 5.3794 111.078 7.81757V21.8695C111.078 24.3074 109.835 26.454 107.949 27.7141C109.065 28.4594 110.405 28.8958 111.848 28.8958C115.728 28.8958 118.874 25.7502 118.874 21.8699V7.81724C118.874 3.93686 115.728 0.79126 111.848 0.79126V0.79126Z" fill="#D3DCFB"/>
<path id="Vector_38" d="M47.2038 0.79126C45.7613 0.79126 44.4215 1.22732 43.3057 1.97296C45.1912 3.23304 46.4338 5.3794 46.4338 7.81757V21.8695C46.4338 24.3074 45.1912 26.454 43.3057 27.7141C44.4212 28.4594 45.7613 28.8958 47.2038 28.8958C51.0842 28.8958 54.2298 25.7502 54.2298 21.8699V7.81724C54.2301 3.93686 51.0845 0.79126 47.2038 0.79126V0.79126Z" fill="#D3DCFB"/>
<path id="Vector_39" d="M141.365 12.033H133.559C139.767 12.033 144.8 17.0657 144.8 23.2743V51.3792H152.606V23.2746C152.606 17.0661 147.573 12.033 141.365 12.033Z" fill="#E80054"/>
<path id="Vector_40" d="M6.45264 37.5925H152.606V42.6819H6.45264V37.5925Z" fill="#E80054"/>
</g>
<path id="Vector_41" d="M121.686 169.417C144.968 169.417 163.843 150.543 163.843 127.261C163.843 103.978 144.968 85.1042 121.686 85.1042C98.4037 85.1042 79.5295 103.978 79.5295 127.261C79.5295 150.543 98.4037 169.417 121.686 169.417Z" fill="#4FABF7"/>
<path id="Vector_42" d="M121.686 158.176C138.76 158.176 152.601 144.335 152.601 127.261C152.601 110.187 138.76 96.3459 121.686 96.3459C104.612 96.3459 90.7712 110.187 90.7712 127.261C90.7712 144.335 104.612 158.176 121.686 158.176Z" fill="#EBF5FC"/>
<g id="Group_10">
<g id="Group_11">
<path id="Vector_43" d="M121.686 124.184C120.28 124.184 119.142 123.045 119.142 121.64V107.588C119.142 106.182 120.281 105.043 121.686 105.043C123.092 105.043 124.231 106.182 124.231 107.588V121.64C124.231 123.045 123.091 124.184 121.686 124.184Z" fill="#3C58A0"/>
</g>
</g>
<g id="Group_12">
<g id="Group_13">
<path id="Vector_44" d="M135.738 129.805H127.307C125.901 129.805 124.762 128.666 124.762 127.261C124.762 125.856 125.901 124.716 127.307 124.716H135.738C137.144 124.716 138.283 125.856 138.283 127.261C138.283 128.666 137.144 129.805 135.738 129.805Z" fill="#3C58A0"/>
</g>
</g>
<path id="Vector_45" d="M121.686 85.1042C120.37 85.1042 119.069 85.1678 117.784 85.2857C139.237 87.2549 156.039 105.294 156.039 127.261C156.039 149.227 139.237 167.267 117.784 169.236C119.069 169.354 120.37 169.417 121.686 169.417C144.968 169.417 163.842 150.543 163.842 127.261C163.842 103.979 144.968 85.1042 121.686 85.1042Z" fill="#1886EA"/>
<path id="Vector_46" d="M121.686 96.3459C120.366 96.3459 119.064 96.4293 117.787 96.59C133.02 98.5071 144.803 111.508 144.803 127.261C144.803 143.014 133.02 156.015 117.787 157.932C119.064 158.092 120.366 158.176 121.686 158.176C138.76 158.176 152.601 144.335 152.601 127.261C152.601 110.187 138.76 96.3459 121.686 96.3459Z" fill="#D3DCFB"/>
<path id="Vector_47" d="M121.686 132.882C124.791 132.882 127.307 130.365 127.307 127.261C127.307 124.156 124.791 121.64 121.686 121.64C118.582 121.64 116.065 124.156 116.065 127.261C116.065 130.365 118.582 132.882 121.686 132.882Z" fill="#FFDD40"/>
</g>
</g>
<defs>
<clipPath id="clip0_1205_3008">
<rect width="168.626" height="168.626" fill="white" transform="translate(0.834717 0.79126)"/>
</clipPath>
</defs>
</svg>
