<svg width="23" height="23" viewBox="0 0 23 23" fill="none" xmlns="http://www.w3.org/2000/svg">
<path fill-rule="evenodd" clip-rule="evenodd" d="M16.535 7.09209C16.535 9.95035 14.2819 12.2674 11.5025 12.2674C8.72314 12.2674 6.47001 9.95035 6.47001 7.09209C6.47001 4.23383 8.72314 1.91675 11.5025 1.91675C14.2819 1.91675 16.535 4.23383 16.535 7.09209ZM15.822 15.1834C17.4221 15.5073 18.4668 16.036 18.9145 16.8886C19.2507 17.554 19.2507 18.3462 18.9145 19.0116C18.4668 19.8642 17.4636 20.4269 15.8054 20.7168C15.0666 20.8658 14.3186 20.9626 13.5669 21.0067C12.8705 21.0834 12.1741 21.0834 11.4694 21.0834H10.2009C9.93556 21.0493 9.67854 21.0323 9.42982 21.0323C8.67807 20.9936 7.92999 20.8996 7.19131 20.7509C5.59119 20.444 4.54655 19.8983 4.09885 19.0457C3.92602 18.7154 3.8349 18.3465 3.83354 17.9714C3.82994 17.594 3.9183 17.2218 4.09056 16.8886C4.52997 16.036 5.57461 15.4818 7.19131 15.1834C7.93324 15.0377 8.68388 14.9437 9.43811 14.902C10.8178 14.7908 12.2038 14.7908 13.5835 14.902C14.3348 14.9458 15.0826 15.0398 15.822 15.1834Z" fill="#2C3550"/>
</svg>
