<svg width="18" height="18" viewBox="0 0 18 18" fill="none" xmlns="http://www.w3.org/2000/svg">
<g id="Icons">
<path id="Vector" d="M7.2825 5.03245L8.25 4.05745V12.75C8.25 12.9489 8.32902 13.1396 8.46967 13.2803C8.61032 13.4209 8.80109 13.5 9 13.5C9.19891 13.5 9.38968 13.4209 9.53033 13.2803C9.67098 13.1396 9.75 12.9489 9.75 12.75V4.05745L10.7175 5.03245C10.7872 5.10275 10.8702 5.15855 10.9616 5.19662C11.053 5.2347 11.151 5.2543 11.25 5.2543C11.349 5.2543 11.447 5.2347 11.5384 5.19662C11.6298 5.15855 11.7128 5.10275 11.7825 5.03245C11.8528 4.96273 11.9086 4.87978 11.9467 4.78839C11.9847 4.69699 12.0043 4.59896 12.0043 4.49995C12.0043 4.40095 11.9847 4.30292 11.9467 4.21152C11.9086 4.12013 11.8528 4.03718 11.7825 3.96745L9.5325 1.71745C9.46278 1.64716 9.37983 1.59136 9.28843 1.55329C9.19704 1.51521 9.09901 1.49561 9 1.49561C8.90099 1.49561 8.80296 1.51521 8.71157 1.55329C8.62017 1.59136 8.53722 1.64716 8.4675 1.71745L6.2175 3.96745C6.07627 4.10868 5.99693 4.30023 5.99693 4.49995C5.99693 4.69968 6.07627 4.89123 6.2175 5.03245C6.35873 5.17368 6.55027 5.25302 6.75 5.25302C6.94973 5.25302 7.14127 5.17368 7.2825 5.03245ZM13.5 6.74995H12C11.8011 6.74995 11.6103 6.82897 11.4697 6.96962C11.329 7.11028 11.25 7.30104 11.25 7.49995C11.25 7.69887 11.329 7.88963 11.4697 8.03028C11.6103 8.17094 11.8011 8.24995 12 8.24995H13.5C13.6989 8.24995 13.8897 8.32897 14.0303 8.46962C14.171 8.61028 14.25 8.80104 14.25 8.99995V14.25C14.25 14.4489 14.171 14.6396 14.0303 14.7803C13.8897 14.9209 13.6989 15 13.5 15H4.5C4.30109 15 4.11032 14.9209 3.96967 14.7803C3.82902 14.6396 3.75 14.4489 3.75 14.25V8.99995C3.75 8.80104 3.82902 8.61028 3.96967 8.46962C4.11032 8.32897 4.30109 8.24995 4.5 8.24995H6C6.19891 8.24995 6.38968 8.17094 6.53033 8.03028C6.67098 7.88963 6.75 7.69887 6.75 7.49995C6.75 7.30104 6.67098 7.11028 6.53033 6.96962C6.38968 6.82897 6.19891 6.74995 6 6.74995H4.5C3.90326 6.74995 3.33097 6.98701 2.90901 7.40896C2.48705 7.83092 2.25 8.40322 2.25 8.99995V14.25C2.25 14.8467 2.48705 15.419 2.90901 15.8409C3.33097 16.2629 3.90326 16.5 4.5 16.5H13.5C14.0967 16.5 14.669 16.2629 15.091 15.8409C15.5129 15.419 15.75 14.8467 15.75 14.25V8.99995C15.75 8.40322 15.5129 7.83092 15.091 7.40896C14.669 6.98701 14.0967 6.74995 13.5 6.74995Z" fill="#F8F9FA"/>
</g>
</svg>
