<svg width="18" height="18" viewBox="0 0 18 18" fill="none" xmlns="http://www.w3.org/2000/svg">
<path d="M9.00122 17.1221C6.81446 17.1221 6.52564 17.1126 5.65093 17.0732C4.97699 17.0589 4.31027 16.9312 3.67871 16.6955C3.13641 16.4917 2.64526 16.1717 2.2397 15.758C1.8262 15.3521 1.50643 14.8607 1.30278 14.3183C1.06712 13.6868 0.939438 13.02 0.925098 12.3461C0.885742 11.4727 0.876221 11.1832 0.876221 8.99707C0.876221 6.82554 0.885742 6.53355 0.925098 5.64678C0.938702 4.97282 1.06618 4.30601 1.30215 3.67456C1.50671 3.13247 1.82685 2.64143 2.24033 2.23555C2.64593 1.82203 3.13709 1.50225 3.67935 1.29863C4.31086 1.0628 4.97761 0.935119 5.65156 0.920947C6.52564 0.881592 6.81509 0.87207 9.00122 0.87207C11.1874 0.87207 11.4768 0.881592 12.3496 0.920947C13.0242 0.935243 13.6915 1.06292 14.3237 1.29863C14.8655 1.50247 15.3562 1.82223 15.7615 2.23555C16.175 2.64143 16.4951 3.13247 16.6997 3.67456C16.934 4.3065 17.0616 4.97299 17.0774 5.64678C17.1167 6.52149 17.1262 6.81348 17.1262 8.99707C17.1262 11.1807 17.1167 11.4727 17.078 12.3474C17.0622 13.0209 16.9345 13.6872 16.7003 14.319C16.4913 14.8586 16.172 15.3487 15.7629 15.758C15.3538 16.1673 14.8639 16.4868 14.3244 16.6961C13.6924 16.9318 13.0252 17.0594 12.3509 17.0738C11.4768 17.1132 11.1874 17.1221 9.00122 17.1221ZM8.27315 2.33203C6.76304 2.33203 6.47676 2.34346 5.71885 2.37773C5.2035 2.38365 4.69304 2.47857 4.21001 2.6583C3.85703 2.78865 3.53775 2.99644 3.27564 3.26641C3.00567 3.52852 2.79787 3.8478 2.66753 4.20078C2.48829 4.68371 2.3936 5.19391 2.3876 5.70899C2.34888 6.56148 2.34063 6.81792 2.34063 8.99136C2.34063 11.1648 2.34888 11.4225 2.3876 12.2744C2.3936 12.7894 2.48829 13.2996 2.66753 13.7826C2.79792 14.1353 3.00571 14.4544 3.27564 14.7163C3.53775 14.9863 3.85703 15.1941 4.21001 15.3244C4.69332 15.5031 5.20362 15.5977 5.71885 15.6044C6.5815 15.6437 6.83921 15.652 9.00186 15.652C11.1645 15.652 11.4216 15.6437 12.2849 15.6044C12.7999 15.5984 13.3101 15.5037 13.7931 15.3244C14.1433 15.1892 14.4614 14.9822 14.7269 14.7168C14.9924 14.4514 15.1995 14.1334 15.3349 13.7832C15.5141 13.3003 15.6088 12.7901 15.6148 12.275C15.6542 11.4124 15.6625 11.1546 15.6625 8.99326C15.6625 6.83189 15.6542 6.57417 15.6148 5.71153C15.6088 5.19644 15.5142 4.68625 15.3349 4.20332C15.2044 3.85043 14.9966 3.53118 14.7268 3.26895C14.4649 2.99894 14.1455 2.79132 13.7924 2.66148C13.3095 2.48224 12.7993 2.38754 12.2842 2.38154C11.4317 2.34282 11.1753 2.33457 9.00122 2.33457H8.27315V2.33203ZM9.00122 13.1688C8.17599 13.1688 7.36929 12.924 6.68314 12.4655C5.997 12.0071 5.46222 11.3554 5.14645 10.593C4.83067 9.83054 4.74808 8.99159 4.90912 8.18223C5.07017 7.37286 5.4676 6.62942 6.05118 6.04594C6.63475 5.46246 7.37824 5.06513 8.18763 4.90422C8.99703 4.7433 9.83596 4.82601 10.5983 5.1419C11.3607 5.45779 12.0123 5.99267 12.4707 6.67889C12.9291 7.3651 13.1737 8.17184 13.1735 8.99707C13.172 10.1031 12.7319 11.1634 11.9498 11.9455C11.1676 12.7275 10.1073 13.1674 9.00122 13.1688ZM9.00122 6.28853C8.46573 6.28878 7.94233 6.44779 7.4972 6.74547C7.05207 7.04314 6.70519 7.46611 6.50041 7.9609C6.29563 8.45569 6.24215 9.00009 6.34672 9.52527C6.4513 10.0505 6.70924 10.5328 7.08794 10.9114C7.46663 11.2901 7.94908 11.5479 8.47428 11.6523C8.99949 11.7568 9.54388 11.7032 10.0386 11.4983C10.5334 11.2934 10.9562 10.9464 11.2538 10.5012C11.5514 10.056 11.7103 9.53257 11.7104 8.99707C11.7096 8.27893 11.4238 7.59046 10.9159 7.08277C10.408 6.57508 9.71937 6.28967 9.00122 6.28916V6.28853ZM13.3386 5.63281C13.1457 5.63269 12.9571 5.57533 12.7968 5.46801C12.6365 5.36069 12.5116 5.20822 12.438 5.0299C12.3644 4.85158 12.3453 4.65544 12.3832 4.46628C12.4211 4.27712 12.5143 4.10345 12.6509 3.96726C12.7875 3.83107 12.9615 3.73848 13.1508 3.70119C13.3401 3.66391 13.5362 3.68362 13.7142 3.75782C13.8923 3.83203 14.0444 3.95739 14.1512 4.11805C14.258 4.27871 14.3147 4.46744 14.3142 4.66035C14.3134 4.91856 14.2102 5.1659 14.0273 5.34818C13.8445 5.53046 13.5968 5.63282 13.3386 5.63281Z" fill="white"/>
</svg>
