<svg width="17" height="14" viewBox="0 0 17 14" fill="none" xmlns="http://www.w3.org/2000/svg">
<path d="M5.40443 13.373C3.59919 13.373 1.91639 12.8361 0.5 11.9097C1.70256 11.9893 3.82481 11.7987 5.14485 10.5111C3.15908 10.4179 2.26354 8.8605 2.14673 8.19493C2.31545 8.26149 3.12015 8.34135 3.57441 8.15499C1.29012 7.56929 0.939692 5.51935 1.01757 4.89371C1.44587 5.19987 2.17269 5.30636 2.45822 5.27974C0.329684 3.72231 1.09544 1.37951 1.47183 0.873681C2.99934 3.03777 5.28862 4.25321 8.12075 4.32082C8.06735 4.08132 8.03915 3.83198 8.03915 3.57589C8.03915 1.73797 9.49186 0.248047 11.2839 0.248047C12.2202 0.248047 13.0638 0.654781 13.6561 1.30537C14.2818 1.15544 15.2234 0.804471 15.6837 0.500963C15.4517 1.35289 14.7293 2.06357 14.2924 2.32698C14.2888 2.31798 14.296 2.33594 14.2924 2.32698C14.6762 2.26761 15.7147 2.0635 16.125 1.77885C15.9221 2.25746 15.1562 3.05322 14.5277 3.49872C14.6447 8.77248 10.6989 13.373 5.40443 13.373Z" fill="white"/>
</svg>
