<svg width="343" height="56" viewBox="0 0 343 56" fill="none" xmlns="http://www.w3.org/2000/svg">
<g clip-path="url(#clip0_1321_1973)">
<rect width="343" height="56" fill="url(#paint0_linear_1321_1973)"/>
<rect width="343" height="56" rx="12" fill="#E56E2C"/>
<mask id="mask0_1321_1973" style="mask-type:alpha" maskUnits="userSpaceOnUse" x="0" y="0" width="343" height="56">
<rect width="343" height="56" rx="12" fill="white"/>
</mask>
<g mask="url(#mask0_1321_1973)">
<rect width="343" height="56" rx="12" fill="url(#paint1_linear_1321_1973)"/>
<circle opacity="0.1" cx="38" cy="69" r="75" fill="white"/>
<path d="M26.144 29.888C26.144 30.7893 25.9947 31.56 25.696 32.2C25.3973 32.8347 24.928 33.32 24.288 33.656C23.6533 33.992 22.824 34.16 21.8 34.16C20.7653 34.16 19.928 33.9893 19.288 33.648C18.6533 33.3067 18.1893 32.808 17.896 32.152C17.608 31.496 17.464 30.696 17.464 29.752V22.432H19.232V29.968C19.232 30.8853 19.456 31.568 19.904 32.016C20.3573 32.4587 20.9893 32.68 21.8 32.68C22.3387 32.68 22.8027 32.584 23.192 32.392C23.5867 32.1947 23.888 31.896 24.096 31.496C24.304 31.0907 24.408 30.5813 24.408 29.968V22.432H26.144V29.888ZM28.4725 36.576V25.728H30.1845L30.2005 27.104C30.3018 26.9227 30.4325 26.744 30.5925 26.568C30.7525 26.3867 30.9418 26.2213 31.1605 26.072C31.3845 25.9173 31.6378 25.7947 31.9205 25.704C32.2085 25.6133 32.5258 25.568 32.8725 25.568C33.5232 25.568 34.0965 25.72 34.5925 26.024C35.0938 26.3227 35.4832 26.784 35.7605 27.408C36.0432 28.0267 36.1845 28.8133 36.1845 29.768C36.1845 30.728 36.0432 31.5333 35.7605 32.184C35.4832 32.8347 35.0858 33.328 34.5685 33.664C34.0512 33.9947 33.4378 34.16 32.7285 34.16C32.3872 34.16 32.0805 34.112 31.8085 34.016C31.5365 33.92 31.2965 33.7947 31.0885 33.64C30.8805 33.48 30.7018 33.3093 30.5525 33.128C30.4085 32.9413 30.2885 32.7573 30.1925 32.576V36.576H28.4725ZM32.3685 32.856C33.0032 32.856 33.5232 32.6107 33.9285 32.12C34.3392 31.624 34.5445 30.8507 34.5445 29.8C34.5445 28.8987 34.3552 28.1867 33.9765 27.664C33.6032 27.136 33.0672 26.872 32.3685 26.872C31.6485 26.872 31.1045 27.1467 30.7365 27.696C30.3685 28.24 30.1845 28.9413 30.1845 29.8C30.1845 30.36 30.2645 30.872 30.4245 31.336C30.5898 31.7947 30.8352 32.1627 31.1605 32.44C31.4858 32.7173 31.8885 32.856 32.3685 32.856ZM41.5409 36.736C40.1969 36.736 39.1569 36.5467 38.4209 36.168C37.6849 35.7947 37.3169 35.272 37.3169 34.6C37.3169 34.3067 37.3862 34.0587 37.5249 33.856C37.6689 33.648 37.8369 33.4773 38.0289 33.344C38.2262 33.2107 38.4075 33.1067 38.5729 33.032C38.7382 32.952 38.8449 32.896 38.8929 32.864C38.8022 32.8107 38.6849 32.744 38.5409 32.664C38.4022 32.5787 38.2769 32.4667 38.1649 32.328C38.0529 32.184 37.9969 31.9973 37.9969 31.768C37.9969 31.5013 38.1222 31.256 38.3729 31.032C38.6289 30.8027 39.0102 30.6347 39.5169 30.528C39.0155 30.2827 38.6262 29.952 38.3489 29.536C38.0769 29.12 37.9409 28.6773 37.9409 28.208C37.9409 27.6693 38.0929 27.2053 38.3969 26.816C38.7009 26.4213 39.1275 26.12 39.6769 25.912C40.2315 25.704 40.8822 25.6 41.6289 25.6C42.1729 25.6 42.6289 25.6613 42.9969 25.784C43.3649 25.9067 43.7035 26.0773 44.0129 26.296C44.1142 26.2587 44.2582 26.2027 44.4449 26.128C44.6315 26.048 44.8369 25.9627 45.0609 25.872C45.2902 25.7813 45.5062 25.6933 45.7089 25.608C45.9169 25.5227 46.0849 25.4533 46.2129 25.4L46.2049 26.888L44.7649 27.152C44.8395 27.312 44.8982 27.488 44.9409 27.68C44.9889 27.872 45.0129 28.048 45.0129 28.208C45.0129 28.688 44.8822 29.1307 44.6209 29.536C44.3595 29.936 43.9675 30.256 43.4449 30.496C42.9222 30.736 42.2689 30.856 41.4849 30.856C41.4102 30.856 41.3142 30.856 41.1969 30.856C41.0795 30.8507 40.9809 30.8427 40.9009 30.832C40.4049 30.848 40.0635 30.9067 39.8769 31.008C39.6902 31.104 39.5969 31.2107 39.5969 31.328C39.5969 31.4773 39.7169 31.5787 39.9569 31.632C40.1969 31.6853 40.5915 31.7307 41.1409 31.768C41.3382 31.784 41.5889 31.8 41.8929 31.816C42.2022 31.832 42.5435 31.8533 42.9169 31.88C43.8235 31.9333 44.5142 32.16 44.9889 32.56C45.4689 32.96 45.7089 33.4907 45.7089 34.152C45.7089 34.9093 45.3649 35.528 44.6769 36.008C43.9889 36.4933 42.9435 36.736 41.5409 36.736ZM41.8369 35.688C42.5675 35.688 43.1169 35.5813 43.4849 35.368C43.8582 35.16 44.0449 34.848 44.0449 34.432C44.0449 34.1227 43.9249 33.8693 43.6849 33.672C43.4449 33.4747 43.0875 33.36 42.6129 33.328L40.4049 33.184C40.1862 33.1733 39.9675 33.2213 39.7489 33.328C39.5355 33.4347 39.3569 33.584 39.2129 33.776C39.0742 33.9627 39.0049 34.1707 39.0049 34.4C39.0049 34.816 39.2342 35.1333 39.6929 35.352C40.1569 35.576 40.8715 35.688 41.8369 35.688ZM41.5329 29.808C42.0875 29.808 42.5329 29.6747 42.8689 29.408C43.2102 29.136 43.3809 28.7467 43.3809 28.24C43.3809 27.7173 43.2102 27.3147 42.8689 27.032C42.5329 26.744 42.0875 26.6 41.5329 26.6C40.9729 26.6 40.5195 26.744 40.1729 27.032C39.8315 27.32 39.6609 27.7227 39.6609 28.24C39.6609 28.7307 39.8235 29.1147 40.1489 29.392C40.4795 29.6693 40.9409 29.808 41.5329 29.808ZM47.9256 34V25.728H49.5656V27.424C49.7043 27.0187 49.8963 26.68 50.1416 26.408C50.3923 26.1307 50.683 25.9227 51.0136 25.784C51.3443 25.64 51.6936 25.568 52.0616 25.568C52.1736 25.568 52.2803 25.576 52.3816 25.592C52.483 25.6027 52.563 25.624 52.6216 25.656V27.304C52.5523 27.272 52.4616 27.2507 52.3496 27.24C52.243 27.2293 52.1496 27.2213 52.0696 27.216C51.707 27.1893 51.3763 27.208 51.0776 27.272C50.779 27.336 50.5203 27.4427 50.3016 27.592C50.0883 27.7413 49.923 27.936 49.8056 28.176C49.6936 28.416 49.6376 28.6987 49.6376 29.024V34H47.9256ZM56.355 34.16C55.8217 34.16 55.347 34.064 54.931 33.872C54.5203 33.68 54.1977 33.4027 53.963 33.04C53.7283 32.6773 53.611 32.24 53.611 31.728C53.611 30.8107 53.9363 30.1253 54.587 29.672C55.2377 29.2187 56.275 28.9787 57.699 28.952L59.059 28.912V28.312C59.059 27.8373 58.9177 27.464 58.635 27.192C58.3523 26.92 57.9177 26.7867 57.331 26.792C56.8883 26.792 56.4937 26.8933 56.147 27.096C55.8057 27.2987 55.5817 27.632 55.475 28.096H53.987C54.019 27.5467 54.1763 27.0853 54.459 26.712C54.747 26.3333 55.1417 26.048 55.643 25.856C56.1443 25.664 56.7337 25.568 57.411 25.568C58.163 25.568 58.7817 25.672 59.267 25.88C59.7523 26.0827 60.1123 26.3813 60.347 26.776C60.587 27.1707 60.707 27.6507 60.707 28.216V34H59.259L59.123 32.48C58.8137 33.1147 58.4217 33.5547 57.947 33.8C57.4777 34.04 56.947 34.16 56.355 34.16ZM56.891 32.968C57.1523 32.968 57.411 32.9227 57.667 32.832C57.923 32.736 58.155 32.608 58.363 32.448C58.571 32.2827 58.7363 32.0987 58.859 31.896C58.987 31.6933 59.0537 31.4853 59.059 31.272V29.904L57.939 29.928C57.3683 29.9333 56.883 29.992 56.483 30.104C56.0883 30.216 55.7843 30.3893 55.571 30.624C55.363 30.8587 55.259 31.1707 55.259 31.56C55.259 32.0027 55.4137 32.3493 55.723 32.6C56.0323 32.8453 56.4217 32.968 56.891 32.968ZM66.1291 34.16C65.0411 34.16 64.1851 33.7893 63.5611 33.048C62.9371 32.3013 62.6251 31.2267 62.6251 29.824C62.6251 28.9653 62.7505 28.2187 63.0011 27.584C63.2518 26.944 63.6251 26.448 64.1211 26.096C64.6225 25.744 65.2411 25.568 65.9771 25.568C66.3505 25.568 66.6811 25.6133 66.9691 25.704C67.2625 25.7947 67.5185 25.912 67.7371 26.056C67.9611 26.2 68.1451 26.3547 68.2891 26.52C68.4385 26.6853 68.5531 26.84 68.6331 26.984V22.112H70.3531V34H69.0731L68.8811 32.304C68.8225 32.4853 68.7318 32.6827 68.6091 32.896C68.4865 33.1093 68.3185 33.312 68.1051 33.504C67.8971 33.696 67.6305 33.8533 67.3051 33.976C66.9798 34.0987 66.5878 34.16 66.1291 34.16ZM66.4571 32.872C67.2251 32.872 67.7798 32.632 68.1211 32.152C68.4625 31.6667 68.6331 30.872 68.6331 29.768C68.6278 29.144 68.5505 28.616 68.4011 28.184C68.2518 27.752 68.0198 27.4267 67.7051 27.208C67.3958 26.984 66.9878 26.872 66.4811 26.872C65.8465 26.872 65.3291 27.1013 64.9291 27.56C64.5291 28.0133 64.3291 28.7493 64.3291 29.768C64.3291 30.7707 64.5105 31.5387 64.8731 32.072C65.2411 32.6053 65.7691 32.872 66.4571 32.872ZM73.9716 30.264C73.9716 30.76 74.0516 31.2053 74.2116 31.6C74.377 31.9893 74.625 32.2987 74.9556 32.528C75.2863 32.752 75.697 32.864 76.1876 32.864C76.6783 32.864 77.1023 32.752 77.4596 32.528C77.8223 32.304 78.0596 31.9707 78.1716 31.528H79.7556C79.6596 32.0933 79.433 32.5733 79.0756 32.968C78.7236 33.3627 78.297 33.6613 77.7956 33.864C77.2943 34.0613 76.769 34.16 76.2196 34.16C75.4356 34.16 74.745 33.992 74.1476 33.656C73.5503 33.3147 73.0836 32.8293 72.7476 32.2C72.417 31.5707 72.2516 30.8213 72.2516 29.952C72.2516 29.0933 72.4036 28.336 72.7076 27.68C73.0116 27.0187 73.4516 26.5013 74.0276 26.128C74.6036 25.7547 75.297 25.568 76.1076 25.568C76.9076 25.568 77.5796 25.7387 78.1236 26.08C78.673 26.4213 79.089 26.9013 79.3716 27.52C79.6543 28.1333 79.7956 28.8587 79.7956 29.696V30.264H73.9716ZM73.9716 29.152H78.1636C78.1636 28.72 78.089 28.328 77.9396 27.976C77.7903 27.6187 77.561 27.3387 77.2516 27.136C76.9476 26.928 76.5636 26.824 76.0996 26.824C75.625 26.824 75.2303 26.9387 74.9156 27.168C74.601 27.3973 74.3636 27.6907 74.2036 28.048C74.049 28.4053 73.9716 28.7733 73.9716 29.152ZM89.6408 26.96H87.7848L87.7928 31.896C87.7928 32.168 87.8194 32.368 87.8728 32.496C87.9314 32.6187 88.0274 32.6987 88.1608 32.736C88.2994 32.768 88.4861 32.784 88.7208 32.784H89.6888V33.896C89.5821 33.9387 89.4221 33.976 89.2088 34.008C89.0008 34.04 88.7314 34.056 88.4008 34.056C87.7874 34.056 87.3101 33.9733 86.9688 33.808C86.6328 33.6427 86.3981 33.4053 86.2648 33.096C86.1368 32.7813 86.0728 32.4027 86.0728 31.96V26.96H84.7288V25.728H86.1208L86.5448 23.296H87.7848V25.72H89.6408V26.96ZM94.8012 34.16C94.0279 34.16 93.3506 33.9947 92.7693 33.664C92.1933 33.328 91.7453 32.8427 91.4253 32.208C91.1106 31.5733 90.9533 30.8053 90.9533 29.904C90.9533 29.0347 91.1026 28.2747 91.4013 27.624C91.7053 26.9733 92.1453 26.4693 92.7213 26.112C93.2973 25.7493 93.9933 25.568 94.8093 25.568C95.5879 25.568 96.2626 25.7387 96.8333 26.08C97.4039 26.416 97.8466 26.9093 98.1613 27.56C98.4759 28.2053 98.6333 28.9867 98.6333 29.904C98.6333 30.7413 98.4839 31.48 98.1853 32.12C97.8919 32.76 97.4599 33.2613 96.8893 33.624C96.3239 33.9813 95.6279 34.16 94.8012 34.16ZM94.8093 32.84C95.2786 32.84 95.6706 32.7173 95.9853 32.472C96.3053 32.2213 96.5453 31.872 96.7053 31.424C96.8653 30.9707 96.9453 30.448 96.9453 29.856C96.9453 29.3067 96.8733 28.808 96.7293 28.36C96.5906 27.9067 96.3639 27.5467 96.0493 27.28C95.7346 27.0133 95.3213 26.88 94.8093 26.88C94.3293 26.88 93.9293 27.0027 93.6093 27.248C93.2893 27.488 93.0466 27.832 92.8813 28.28C92.7213 28.7227 92.6413 29.248 92.6413 29.856C92.6413 30.3947 92.7133 30.8907 92.8573 31.344C93.0013 31.7973 93.2333 32.16 93.5533 32.432C93.8733 32.704 94.2919 32.84 94.8093 32.84ZM104.292 34V22.432H108.3C109.127 22.432 109.865 22.5733 110.516 22.856C111.172 23.1387 111.687 23.5547 112.06 24.104C112.439 24.6533 112.628 25.328 112.628 26.128C112.628 26.896 112.455 27.552 112.108 28.096C111.767 28.6347 111.287 29.048 110.668 29.336C110.055 29.6187 109.343 29.76 108.532 29.76H106.036V34H104.292ZM106.028 28.36H108.484C109.22 28.36 109.82 28.1493 110.284 27.728C110.748 27.3013 110.98 26.736 110.98 26.032C110.98 25.3173 110.74 24.7707 110.26 24.392C109.78 24.008 109.167 23.816 108.42 23.816H106.028V28.36ZM114.238 34V25.728H115.878V27.424C116.017 27.0187 116.209 26.68 116.454 26.408C116.705 26.1307 116.995 25.9227 117.326 25.784C117.657 25.64 118.006 25.568 118.374 25.568C118.486 25.568 118.593 25.576 118.694 25.592C118.795 25.6027 118.875 25.624 118.934 25.656V27.304C118.865 27.272 118.774 27.2507 118.662 27.24C118.555 27.2293 118.462 27.2213 118.382 27.216C118.019 27.1893 117.689 27.208 117.39 27.272C117.091 27.336 116.833 27.4427 116.614 27.592C116.401 27.7413 116.235 27.936 116.118 28.176C116.006 28.416 115.95 28.6987 115.95 29.024V34H114.238ZM123.739 34.16C122.965 34.16 122.288 33.9947 121.707 33.664C121.131 33.328 120.683 32.8427 120.363 32.208C120.048 31.5733 119.891 30.8053 119.891 29.904C119.891 29.0347 120.04 28.2747 120.339 27.624C120.643 26.9733 121.083 26.4693 121.659 26.112C122.235 25.7493 122.931 25.568 123.747 25.568C124.525 25.568 125.2 25.7387 125.771 26.08C126.341 26.416 126.784 26.9093 127.099 27.56C127.413 28.2053 127.571 28.9867 127.571 29.904C127.571 30.7413 127.421 31.48 127.123 32.12C126.829 32.76 126.397 33.2613 125.827 33.624C125.261 33.9813 124.565 34.16 123.739 34.16ZM123.747 32.84C124.216 32.84 124.608 32.7173 124.923 32.472C125.243 32.2213 125.483 31.872 125.643 31.424C125.803 30.9707 125.883 30.448 125.883 29.856C125.883 29.3067 125.811 28.808 125.667 28.36C125.528 27.9067 125.301 27.5467 124.987 27.28C124.672 27.0133 124.259 26.88 123.747 26.88C123.267 26.88 122.867 27.0027 122.547 27.248C122.227 27.488 121.984 27.832 121.819 28.28C121.659 28.7227 121.579 29.248 121.579 29.856C121.579 30.3947 121.651 30.8907 121.795 31.344C121.939 31.7973 122.171 32.16 122.491 32.432C122.811 32.704 123.229 32.84 123.747 32.84Z" fill="white"/>
</g>
</g>
<defs>
<linearGradient id="paint0_linear_1321_1973" x1="171.5" y1="0" x2="171.5" y2="56" gradientUnits="userSpaceOnUse">
<stop stop-color="white"/>
<stop offset="1" stop-color="white" stop-opacity="0"/>
</linearGradient>
<linearGradient id="paint1_linear_1321_1973" x1="0" y1="0" x2="0" y2="56" gradientUnits="userSpaceOnUse">
<stop stop-color="#FFB459"/>
<stop offset="1" stop-color="#F1573D"/>
</linearGradient>
<clipPath id="clip0_1321_1973">
<rect width="343" height="56" fill="white"/>
</clipPath>
</defs>
</svg>
