<svg width="54" height="54" viewBox="0 0 54 54" fill="none" xmlns="http://www.w3.org/2000/svg">
<g filter="url(#filter0_d_1341_8467)">
<rect x="12" y="6" width="30" height="30" rx="12" fill="url(#paint0_linear_1341_8467)"/>
</g>
<path d="M18.2488 29.75L19.5293 25.0919C18.538 23.3787 18.1421 21.3877 18.4031 19.4278C18.6641 17.4678 19.5674 15.6483 20.9729 14.2513C22.3784 12.8543 24.2077 11.9579 26.1771 11.7011C28.1465 11.4443 30.146 11.8414 31.8656 12.8308C33.5852 13.8203 34.9288 15.3468 35.6882 17.1737C36.4476 19.0006 36.5802 21.0259 36.0657 22.9355C35.5511 24.8451 34.418 26.5324 32.842 27.7358C31.2661 28.9392 29.3354 29.5914 27.3491 29.5914H27.346C25.8393 29.5902 24.3569 29.2144 23.0333 28.498L18.2488 29.75ZM23.2546 26.8746L23.5284 27.0364C25.1079 27.967 26.9754 28.289 28.7773 27.9414C30.5793 27.5938 32.1907 26.6007 33.3066 25.15C34.4225 23.6994 34.9655 21.8919 34.8327 20.0696C34.6999 18.2473 33.9006 16.5366 32.5861 15.2615C31.2716 13.9863 29.5331 13.235 27.6996 13.1499C25.8661 13.0647 24.0649 13.6516 22.6368 14.7994C21.2087 15.9472 20.2529 17.5763 19.9503 19.3784C19.6476 21.1805 20.0191 23.0305 20.9945 24.5783L21.1735 24.8603L20.4146 27.6161L23.2533 26.8746H23.2546ZM29.6946 24.9232C29.3985 24.9248 29.1041 24.8802 28.8219 24.791C28.3853 24.6562 27.9562 24.4984 27.5363 24.3183C25.9927 23.5616 24.6776 22.4119 23.7244 20.9859L23.6871 20.9311C23.1539 20.2656 22.8324 19.4568 22.7639 18.6084C22.7557 18.2696 22.8176 17.9327 22.9456 17.6187C23.0737 17.3047 23.2651 17.0202 23.5082 16.7829L23.5524 16.7351C23.6275 16.6492 23.7198 16.5799 23.8234 16.5315C23.9269 16.4832 24.0395 16.4569 24.1538 16.4543C24.2986 16.4543 24.4516 16.4543 24.5857 16.4625H24.6572C24.7963 16.4625 24.9443 16.4921 25.0935 16.8471C25.1567 16.9913 25.2408 17.2028 25.3338 17.4275V17.4338C25.5279 17.9046 25.748 18.4378 25.7859 18.5139C25.822 18.5727 25.8426 18.6395 25.8459 18.7082C25.8492 18.777 25.8351 18.8455 25.8049 18.9074L25.7739 18.9703C25.7249 19.0841 25.6595 19.1901 25.5798 19.285C25.5418 19.3291 25.5026 19.3763 25.4634 19.4242C25.3875 19.5167 25.3091 19.613 25.2415 19.6759C25.1327 19.7842 25.0094 19.907 25.1422 20.1342C25.4805 20.7116 25.9033 21.2356 26.3968 21.689C26.8886 22.1293 27.4518 22.4834 28.0624 22.7364C28.1257 22.7635 28.1737 22.7843 28.2104 22.8025C28.2855 22.8453 28.3695 22.87 28.4558 22.8749C28.5031 22.8734 28.5496 22.8613 28.5916 22.8395C28.6336 22.8177 28.6702 22.7868 28.6986 22.749C28.8023 22.6307 29.2557 22.1032 29.4125 21.8678C29.4377 21.8185 29.4755 21.7768 29.5222 21.7469C29.5689 21.7171 29.6227 21.7001 29.6781 21.6978C29.7616 21.7035 29.8434 21.723 29.9203 21.7557C30.1233 21.83 31.2034 22.3575 31.4608 22.4859L31.5873 22.5489C31.7056 22.5885 31.8117 22.6579 31.8952 22.7503C31.9576 23.1121 31.9118 23.4842 31.7637 23.8204C31.5983 24.0941 31.3775 24.3306 31.1153 24.5148C30.8532 24.699 30.5554 24.8269 30.2409 24.8905C30.0599 24.9155 29.8773 24.9271 29.6946 24.9251V24.9232Z" fill="#FDFDFD"/>
<defs>
<filter id="filter0_d_1341_8467" x="0" y="0" width="54" height="54" filterUnits="userSpaceOnUse" color-interpolation-filters="sRGB">
<feFlood flood-opacity="0" result="BackgroundImageFix"/>
<feColorMatrix in="SourceAlpha" type="matrix" values="0 0 0 0 0 0 0 0 0 0 0 0 0 0 0 0 0 0 127 0" result="hardAlpha"/>
<feOffset dy="6"/>
<feGaussianBlur stdDeviation="6"/>
<feColorMatrix type="matrix" values="0 0 0 0 0.239216 0 0 0 0 0.752941 0 0 0 0 0.309804 0 0 0 0.2 0"/>
<feBlend mode="normal" in2="BackgroundImageFix" result="effect1_dropShadow_1341_8467"/>
<feBlend mode="normal" in="SourceGraphic" in2="effect1_dropShadow_1341_8467" result="shape"/>
</filter>
<linearGradient id="paint0_linear_1341_8467" x1="40.125" y1="9.75" x2="12" y2="36" gradientUnits="userSpaceOnUse">
<stop stop-color="#5BD066"/>
<stop offset="1" stop-color="#27B43E"/>
</linearGradient>
</defs>
</svg>
