<svg width="19" height="19" viewBox="0 0 19 19" fill="none" xmlns="http://www.w3.org/2000/svg">
<path d="M0.248779 18.75L1.52932 14.0919C0.537951 12.3787 0.14208 10.3877 0.40308 8.42776C0.664079 6.46778 1.56737 4.64825 2.9729 3.25128C4.37844 1.85431 6.2077 0.957932 8.17709 0.701118C10.1465 0.444304 12.146 0.8414 13.8656 1.83084C15.5852 2.82029 16.9288 4.3468 17.6882 6.17372C18.4476 8.00064 18.5802 10.0259 18.0657 11.9355C17.5511 13.8451 16.418 15.5324 14.842 16.7358C13.2661 17.9392 11.3354 18.5914 9.34914 18.5914H9.34598C7.83935 18.5902 6.35688 18.2144 5.03325 17.498L0.248779 18.75ZM5.25458 15.8746L5.52839 16.0364C7.10791 16.967 8.97537 17.289 10.7773 16.9414C12.5793 16.5938 14.1907 15.6007 15.3066 14.15C16.4225 12.6994 16.9655 10.8919 16.8327 9.06956C16.6999 7.24726 15.9006 5.53663 14.5861 4.26145C13.2716 2.98627 11.5331 2.23501 9.69958 2.14986C7.86609 2.06471 6.06485 2.65158 4.63678 3.7994C3.20871 4.94722 2.25291 6.57634 1.95026 8.37842C1.64762 10.1805 2.01914 12.0305 2.99451 13.5783L3.17347 13.8603L2.41463 16.6161L5.25331 15.8746H5.25458ZM11.6946 13.9232C11.3985 13.9248 11.1041 13.8802 10.8219 13.791C10.3853 13.6562 9.95615 13.4984 9.53632 13.3183C7.99269 12.5616 6.67759 11.4119 5.72443 9.98588L5.68712 9.93112C5.1539 9.26564 4.83242 8.45685 4.76386 7.60837C4.75573 7.26957 4.8176 6.93273 4.94564 6.61872C5.07367 6.30471 5.26513 6.02022 5.50816 5.7829L5.55242 5.73506C5.62753 5.6492 5.71981 5.57988 5.82336 5.53154C5.92691 5.48319 6.03946 5.45689 6.1538 5.45432C6.29861 5.45432 6.45165 5.45432 6.58571 5.4625H6.65716C6.79628 5.4625 6.94426 5.49208 7.0935 5.84711C7.15673 5.99125 7.24084 6.20276 7.3338 6.42748V6.43377C7.52793 6.90462 7.74799 7.43778 7.78594 7.51395C7.82198 7.57268 7.84262 7.63949 7.84593 7.70824C7.84925 7.77699 7.83514 7.84546 7.80491 7.90736L7.77392 7.97031C7.72495 8.08407 7.65955 8.19011 7.57978 8.28505C7.54184 8.32911 7.50264 8.37632 7.46343 8.42416C7.38755 8.51669 7.30913 8.613 7.24147 8.67595C7.1327 8.78422 7.00939 8.90697 7.14219 9.1342C7.48049 9.71162 7.90334 10.2356 8.3968 10.689C8.88862 11.1293 9.4518 11.4834 10.0624 11.7364C10.1257 11.7635 10.1737 11.7843 10.2104 11.8025C10.2855 11.8453 10.3695 11.87 10.4558 11.8749C10.5031 11.8734 10.5496 11.8613 10.5916 11.8395C10.6336 11.8177 10.6702 11.7868 10.6986 11.749C10.8023 11.6307 11.2557 11.1032 11.4125 10.8678C11.4377 10.8185 11.4755 10.7768 11.5222 10.7469C11.5689 10.7171 11.6227 10.7001 11.6781 10.6978C11.7616 10.7035 11.8434 10.723 11.9203 10.7557C12.1233 10.83 13.2034 11.3575 13.4608 11.4859L13.5873 11.5489C13.7056 11.5885 13.8117 11.6579 13.8952 11.7503C13.9576 12.1121 13.9118 12.4842 13.7637 12.8204C13.5983 13.0941 13.3775 13.3306 13.1153 13.5148C12.8532 13.699 12.5554 13.8269 12.2409 13.8905C12.0599 13.9155 11.8773 13.9271 11.6946 13.9251V13.9232Z" fill="#FDFDFD"/>
</svg>
