<svg width="24" height="16" viewBox="0 0 24 16" fill="none" xmlns="http://www.w3.org/2000/svg">
<path d="M2.25 0.5C1.65326 0.5 1.08097 0.737053 0.65901 1.15901C0.237053 1.58097 0 2.15326 0 2.75L0 5C0 5.19891 0.0790176 5.38968 0.21967 5.53033C0.360322 5.67098 0.551088 5.75 0.75 5.75C1.34674 5.75 1.91903 5.98705 2.34099 6.40901C2.76295 6.83097 3 7.40326 3 8C3 8.59674 2.76295 9.16903 2.34099 9.59099C1.91903 10.0129 1.34674 10.25 0.75 10.25C0.551088 10.25 0.360322 10.329 0.21967 10.4697C0.0790176 10.6103 0 10.8011 0 11L0 13.25C0 13.8467 0.237053 14.419 0.65901 14.841C1.08097 15.2629 1.65326 15.5 2.25 15.5H21.75C22.3467 15.5 22.919 15.2629 23.341 14.841C23.7629 14.419 24 13.8467 24 13.25V11C24 10.8011 23.921 10.6103 23.7803 10.4697C23.6397 10.329 23.4489 10.25 23.25 10.25C22.6533 10.25 22.081 10.0129 21.659 9.59099C21.2371 9.16903 21 8.59674 21 8C21 7.40326 21.2371 6.83097 21.659 6.40901C22.081 5.98705 22.6533 5.75 23.25 5.75C23.4489 5.75 23.6397 5.67098 23.7803 5.53033C23.921 5.38968 24 5.19891 24 5V2.75C24 2.15326 23.7629 1.58097 23.341 1.15901C22.919 0.737053 22.3467 0.5 21.75 0.5H2.25Z" fill="url(#paint0_linear_1439_2269)"/>
<defs>
<linearGradient id="paint0_linear_1439_2269" x1="12" y1="0.5" x2="12" y2="15.5" gradientUnits="userSpaceOnUse">
<stop stop-color="#FFB459"/>
<stop offset="1" stop-color="#F1573D"/>
</linearGradient>
</defs>
</svg>
