<svg width="9" height="14" viewBox="0 0 9 14" fill="none" xmlns="http://www.w3.org/2000/svg">
<g id="arrow-down-sign-to-navigate">
<g clip-path="url(#clip0_1242_346)">
<path id="Path 1" d="M8.49961 7.14017C8.49961 7.37027 8.40312 7.60034 8.21053 7.77577L2.14719 13.2962C1.76149 13.6474 1.13613 13.6474 0.750581 13.2962C0.365041 12.9452 0.365041 12.3759 0.750581 12.0247L6.11576 7.14017L0.750771 2.2556C0.365221 1.90443 0.365221 1.33524 0.750771 0.984242C1.13632 0.632902 1.76167 0.632902 2.14738 0.984242L8.21073 6.50458C8.40334 6.6801 8.49961 6.91016 8.49961 7.14018V7.14017Z" fill="url(#paint0_linear_1242_346)"/>
</g>
<rect x="0.461426" y="13.5596" width="12.8388" height="8.03819" transform="rotate(-90 0.461426 13.5596)" stroke="#CED3DE"/>
</g>
<defs>
<linearGradient id="paint0_linear_1242_346" x1="0.461426" y1="7.14015" x2="8.49961" y2="7.14015" gradientUnits="userSpaceOnUse">
<stop stop-color="#FFB459"/>
<stop offset="1" stop-color="#F1573D"/>
</linearGradient>
<clipPath id="clip0_1242_346">
<rect x="0.461426" y="13.5596" width="12.8388" height="8.03819" transform="rotate(-90 0.461426 13.5596)" fill="white"/>
</clipPath>
</defs>
</svg>
